<svg width="103" height="97" viewBox="0 0 103 97" fill="none" xmlns="http://www.w3.org/2000/svg">
<circle cx="46" cy="25" r="25" fill="white"/>
<path fill-rule="evenodd" clip-rule="evenodd" d="M52.5517 14L46.5 25.7021L40.4483 14L33 34.5957H39.0517L41.8448 26.6383L46.5 36L51.1552 26.6383L53.9483 34.5957H60L52.5517 14Z" fill="#9C163A"/>
<rect y="73" width="103" height="24" rx="5" fill="white"/>
<path d="M12.852 89.06C12.228 89.06 11.668 88.924 11.172 88.652C10.684 88.372 10.3 87.992 10.02 87.512C9.74 87.024 9.6 86.468 9.6 85.844C9.6 85.212 9.74 84.656 10.02 84.176C10.3 83.696 10.684 83.32 11.172 83.048C11.668 82.776 12.228 82.64 12.852 82.64C13.388 82.64 13.872 82.744 14.304 82.952C14.736 83.16 15.076 83.472 15.324 83.888L14.688 84.32C14.472 84 14.204 83.764 13.884 83.612C13.564 83.46 13.216 83.384 12.84 83.384C12.392 83.384 11.988 83.488 11.628 83.696C11.268 83.896 10.984 84.18 10.776 84.548C10.568 84.916 10.464 85.348 10.464 85.844C10.464 86.34 10.568 86.772 10.776 87.14C10.984 87.508 11.268 87.796 11.628 88.004C11.988 88.204 12.392 88.304 12.84 88.304C13.216 88.304 13.564 88.228 13.884 88.076C14.204 87.924 14.472 87.692 14.688 87.38L15.324 87.812C15.076 88.22 14.736 88.532 14.304 88.748C13.872 88.956 13.388 89.06 12.852 89.06ZM18.0565 89V83.216L18.2725 83.444H15.6685V82.7H21.2965V83.444H18.6925L18.9085 83.216V89H18.0565ZM22.0493 89.06C21.8733 89.06 21.7213 88.996 21.5933 88.868C21.4733 88.74 21.4133 88.584 21.4133 88.4C21.4133 88.208 21.4733 88.052 21.5933 87.932C21.7213 87.812 21.8733 87.752 22.0493 87.752C22.2253 87.752 22.3733 87.812 22.4933 87.932C22.6213 88.052 22.6853 88.208 22.6853 88.4C22.6853 88.584 22.6213 88.74 22.4933 88.868C22.3733 88.996 22.2253 89.06 22.0493 89.06ZM31.5489 89.072C30.9169 89.072 30.3329 88.968 29.7969 88.76C29.2609 88.544 28.7969 88.244 28.4049 87.86C28.0129 87.476 27.7049 87.024 27.4809 86.504C27.2649 85.984 27.1569 85.416 27.1569 84.8C27.1569 84.184 27.2649 83.616 27.4809 83.096C27.7049 82.576 28.0129 82.124 28.4049 81.74C28.8049 81.356 29.2729 81.06 29.8089 80.852C30.3449 80.636 30.9289 80.528 31.5609 80.528C32.1689 80.528 32.7409 80.632 33.2769 80.84C33.8129 81.04 34.2649 81.344 34.6329 81.752L34.0689 82.316C33.7249 81.964 33.3449 81.712 32.9289 81.56C32.5129 81.4 32.0649 81.32 31.5849 81.32C31.0809 81.32 30.6129 81.408 30.1809 81.584C29.7489 81.752 29.3729 81.996 29.0529 82.316C28.7329 82.628 28.4809 82.996 28.2969 83.42C28.1209 83.836 28.0329 84.296 28.0329 84.8C28.0329 85.304 28.1209 85.768 28.2969 86.192C28.4809 86.608 28.7329 86.976 29.0529 87.296C29.3729 87.608 29.7489 87.852 30.1809 88.028C30.6129 88.196 31.0809 88.28 31.5849 88.28C32.0649 88.28 32.5129 88.2 32.9289 88.04C33.3449 87.88 33.7249 87.624 34.0689 87.272L34.6329 87.836C34.2649 88.244 33.8129 88.552 33.2769 88.76C32.7409 88.968 32.1649 89.072 31.5489 89.072ZM36.2628 89V82.7H37.1148V87.704L41.3268 82.7H42.0828V89H41.2308V83.984L37.0308 89H36.2628ZM47.3565 89.072C46.8445 89.072 46.3885 88.988 45.9885 88.82C45.5965 88.652 45.2605 88.396 44.9805 88.052C44.7005 87.708 44.4885 87.284 44.3445 86.78C44.2005 86.268 44.1285 85.676 44.1285 85.004C44.1285 84.404 44.1845 83.88 44.2965 83.432C44.4085 82.976 44.5645 82.584 44.7645 82.256C44.9645 81.928 45.1965 81.652 45.4605 81.428C45.7325 81.196 46.0245 81.012 46.3365 80.876C46.6565 80.732 46.9845 80.624 47.3205 80.552L50.1525 79.892L50.2965 80.684L47.6325 81.284C47.4645 81.324 47.2605 81.38 47.0205 81.452C46.7885 81.524 46.5485 81.632 46.3005 81.776C46.0605 81.92 45.8365 82.12 45.6285 82.376C45.4205 82.632 45.2525 82.964 45.1245 83.372C45.0045 83.772 44.9445 84.272 44.9445 84.872C44.9445 85 44.9485 85.104 44.9565 85.184C44.9645 85.256 44.9725 85.336 44.9805 85.424C44.9965 85.504 45.0085 85.624 45.0165 85.784L44.6445 85.472C44.7325 84.984 44.9125 84.56 45.1845 84.2C45.4565 83.832 45.7965 83.548 46.2045 83.348C46.6205 83.14 47.0805 83.036 47.5845 83.036C48.1685 83.036 48.6885 83.164 49.1445 83.42C49.6005 83.668 49.9565 84.016 50.2125 84.464C50.4765 84.912 50.6085 85.432 50.6085 86.024C50.6085 86.608 50.4725 87.132 50.2005 87.596C49.9365 88.06 49.5605 88.424 49.0725 88.688C48.5845 88.944 48.0125 89.072 47.3565 89.072ZM47.4525 88.364C47.9005 88.364 48.2965 88.264 48.6405 88.064C48.9845 87.856 49.2525 87.576 49.4445 87.224C49.6445 86.872 49.7445 86.476 49.7445 86.036C49.7445 85.604 49.6445 85.22 49.4445 84.884C49.2525 84.548 48.9845 84.284 48.6405 84.092C48.2965 83.892 47.8965 83.792 47.4405 83.792C46.9925 83.792 46.5965 83.888 46.2525 84.08C45.9085 84.264 45.6365 84.524 45.4365 84.86C45.2445 85.196 45.1485 85.584 45.1485 86.024C45.1485 86.464 45.2445 86.86 45.4365 87.212C45.6365 87.564 45.9085 87.844 46.2525 88.052C46.6045 88.26 47.0045 88.364 47.4525 88.364ZM52.4347 89V82.7H53.2867V87.704L57.4987 82.7H58.2547V89H57.4027V83.984L53.2027 89H52.4347ZM63.9484 89.06C63.4044 89.06 62.9124 88.936 62.4724 88.688C62.0324 88.432 61.6804 88.068 61.4164 87.596C61.1604 87.116 61.0324 86.532 61.0324 85.844C61.0324 85.156 61.1604 84.576 61.4164 84.104C61.6724 83.624 62.0204 83.26 62.4604 83.012C62.9004 82.764 63.3964 82.64 63.9484 82.64C64.5484 82.64 65.0844 82.776 65.5564 83.048C66.0364 83.312 66.4124 83.688 66.6844 84.176C66.9564 84.656 67.0924 85.212 67.0924 85.844C67.0924 86.484 66.9564 87.044 66.6844 87.524C66.4124 88.004 66.0364 88.38 65.5564 88.652C65.0844 88.924 64.5484 89.06 63.9484 89.06ZM60.6964 91.328V82.7H61.5124V84.596L61.4284 85.856L61.5484 87.128V91.328H60.6964ZM63.8884 88.304C64.3364 88.304 64.7364 88.204 65.0884 88.004C65.4404 87.796 65.7204 87.508 65.9284 87.14C66.1364 86.764 66.2404 86.332 66.2404 85.844C66.2404 85.356 66.1364 84.928 65.9284 84.56C65.7204 84.192 65.4404 83.904 65.0884 83.696C64.7364 83.488 64.3364 83.384 63.8884 83.384C63.4404 83.384 63.0364 83.488 62.6764 83.696C62.3244 83.904 62.0444 84.192 61.8364 84.56C61.6364 84.928 61.5364 85.356 61.5364 85.844C61.5364 86.332 61.6364 86.764 61.8364 87.14C62.0444 87.508 62.3244 87.796 62.6764 88.004C63.0364 88.204 63.4404 88.304 63.8884 88.304ZM71.5629 89.06C70.9389 89.06 70.3789 88.924 69.8829 88.652C69.3949 88.372 69.0109 87.992 68.7309 87.512C68.4509 87.024 68.3109 86.468 68.3109 85.844C68.3109 85.212 68.4509 84.656 68.7309 84.176C69.0109 83.696 69.3949 83.32 69.8829 83.048C70.3789 82.776 70.9389 82.64 71.5629 82.64C72.0989 82.64 72.5829 82.744 73.0149 82.952C73.4469 83.16 73.7869 83.472 74.0349 83.888L73.3989 84.32C73.1829 84 72.9149 83.764 72.5949 83.612C72.2749 83.46 71.9269 83.384 71.5509 83.384C71.1029 83.384 70.6989 83.488 70.3389 83.696C69.9789 83.896 69.6949 84.18 69.4869 84.548C69.2789 84.916 69.1749 85.348 69.1749 85.844C69.1749 86.34 69.2789 86.772 69.4869 87.14C69.6949 87.508 69.9789 87.796 70.3389 88.004C70.6989 88.204 71.1029 88.304 71.5509 88.304C71.9269 88.304 72.2749 88.228 72.5949 88.076C72.9149 87.924 73.1829 87.692 73.3989 87.38L74.0349 87.812C73.7869 88.22 73.4469 88.532 73.0149 88.748C72.5829 88.956 72.0989 89.06 71.5629 89.06ZM80.3047 89L77.7127 85.88L78.4207 85.46L81.3127 89H80.3047ZM75.6847 89V82.7H76.5367V89H75.6847ZM76.2727 86.192V85.46H78.3007V86.192H76.2727ZM78.4927 85.94L77.7007 85.82L80.2087 82.7H81.1327L78.4927 85.94ZM86.4521 89V87.608L86.4161 87.38V85.052C86.4161 84.516 86.2641 84.104 85.9601 83.816C85.6641 83.528 85.2201 83.384 84.6281 83.384C84.2201 83.384 83.8321 83.452 83.4641 83.588C83.0961 83.724 82.7841 83.904 82.5281 84.128L82.1441 83.492C82.4641 83.22 82.8481 83.012 83.2961 82.868C83.7441 82.716 84.2161 82.64 84.7121 82.64C85.5281 82.64 86.1561 82.844 86.5961 83.252C87.0441 83.652 87.2681 84.264 87.2681 85.088V89H86.4521ZM84.2801 89.06C83.8081 89.06 83.3961 88.984 83.0441 88.832C82.7001 88.672 82.4361 88.456 82.2521 88.184C82.0681 87.904 81.9761 87.584 81.9761 87.224C81.9761 86.896 82.0521 86.6 82.2041 86.336C82.3641 86.064 82.6201 85.848 82.9721 85.688C83.3321 85.52 83.8121 85.436 84.4121 85.436H86.5841V86.072H84.4361C83.8281 86.072 83.4041 86.18 83.1641 86.396C82.9321 86.612 82.8161 86.88 82.8161 87.2C82.8161 87.56 82.9561 87.848 83.2361 88.064C83.5161 88.28 83.9081 88.388 84.4121 88.388C84.8921 88.388 85.3041 88.28 85.6481 88.064C86.0001 87.84 86.2561 87.52 86.4161 87.104L86.6081 87.692C86.4481 88.108 86.1681 88.44 85.7681 88.688C85.3761 88.936 84.8801 89.06 84.2801 89.06ZM93.6042 89V86.732L93.7602 86.912H91.6242C90.8162 86.912 90.1842 86.736 89.7282 86.384C89.2722 86.032 89.0442 85.52 89.0442 84.848C89.0442 84.128 89.2882 83.592 89.7762 83.24C90.2642 82.88 90.9162 82.7 91.7322 82.7H94.3842V89H93.6042ZM88.9962 89L90.7242 86.576H91.6122L89.9202 89H88.9962ZM93.6042 86.48V83.192L93.7602 83.444H91.7562C91.1722 83.444 90.7162 83.556 90.3882 83.78C90.0682 84.004 89.9082 84.368 89.9082 84.872C89.9082 85.808 90.5042 86.276 91.6962 86.276H93.7602L93.6042 86.48Z" fill="#393335"/>
<path d="M49.7679 63C50.5377 61.6667 52.4623 61.6667 53.2321 63L58.8612 72.75C59.631 74.0833 58.6688 75.75 57.1292 75.75H45.8708C44.3312 75.75 43.369 74.0833 44.1388 72.75L49.7679 63Z" fill="white"/>
</svg>
