<svg width="116" height="93" viewBox="0 0 116 93" fill="none" xmlns="http://www.w3.org/2000/svg">
<circle cx="58" cy="25" r="25" fill="white"/>
<path fill-rule="evenodd" clip-rule="evenodd" d="M64.5517 14L58.5 25.7021L52.4483 14L45 34.5957H51.0517L53.8448 26.6383L58.5 36L63.1552 26.6383L65.9483 34.5957H72L64.5517 14Z" fill="#9C163A"/>
<rect y="69" width="116" height="24" rx="5" fill="white"/>
<path d="M12.852 85.06C12.228 85.06 11.668 84.924 11.172 84.652C10.684 84.372 10.3 83.992 10.02 83.512C9.74 83.024 9.6 82.468 9.6 81.844C9.6 81.212 9.74 80.656 10.02 80.176C10.3 79.696 10.684 79.32 11.172 79.048C11.668 78.776 12.228 78.64 12.852 78.64C13.388 78.64 13.872 78.744 14.304 78.952C14.736 79.16 15.076 79.472 15.324 79.888L14.688 80.32C14.472 80 14.204 79.764 13.884 79.612C13.564 79.46 13.216 79.384 12.84 79.384C12.392 79.384 11.988 79.488 11.628 79.696C11.268 79.896 10.984 80.18 10.776 80.548C10.568 80.916 10.464 81.348 10.464 81.844C10.464 82.34 10.568 82.772 10.776 83.14C10.984 83.508 11.268 83.796 11.628 84.004C11.988 84.204 12.392 84.304 12.84 84.304C13.216 84.304 13.564 84.228 13.884 84.076C14.204 83.924 14.472 83.692 14.688 83.38L15.324 83.812C15.076 84.22 14.736 84.532 14.304 84.748C13.872 84.956 13.388 85.06 12.852 85.06ZM18.0565 85V79.216L18.2725 79.444H15.6685V78.7H21.2965V79.444H18.6925L18.9085 79.216V85H18.0565ZM22.0493 85.06C21.8733 85.06 21.7213 84.996 21.5933 84.868C21.4733 84.74 21.4133 84.584 21.4133 84.4C21.4133 84.208 21.4733 84.052 21.5933 83.932C21.7213 83.812 21.8733 83.752 22.0493 83.752C22.2253 83.752 22.3733 83.812 22.4933 83.932C22.6213 84.052 22.6853 84.208 22.6853 84.4C22.6853 84.584 22.6213 84.74 22.4933 84.868C22.3733 84.996 22.2253 85.06 22.0493 85.06ZM27.8769 85V76.6H33.2169V77.368H28.5129L28.7409 77.14L28.7529 85H27.8769ZM38.4521 85V83.608L38.4161 83.38V81.052C38.4161 80.516 38.2641 80.104 37.9601 79.816C37.6641 79.528 37.2201 79.384 36.6281 79.384C36.2201 79.384 35.8321 79.452 35.4641 79.588C35.0961 79.724 34.7841 79.904 34.5281 80.128L34.1441 79.492C34.4641 79.22 34.8481 79.012 35.2961 78.868C35.7441 78.716 36.2161 78.64 36.7121 78.64C37.5281 78.64 38.1561 78.844 38.5961 79.252C39.0441 79.652 39.2681 80.264 39.2681 81.088V85H38.4521ZM36.2801 85.06C35.8081 85.06 35.3961 84.984 35.0441 84.832C34.7001 84.672 34.4361 84.456 34.2521 84.184C34.0681 83.904 33.9761 83.584 33.9761 83.224C33.9761 82.896 34.0521 82.6 34.2041 82.336C34.3641 82.064 34.6201 81.848 34.9721 81.688C35.3321 81.52 35.8121 81.436 36.4121 81.436H38.5841V82.072H36.4361C35.8281 82.072 35.4041 82.18 35.1641 82.396C34.9321 82.612 34.8161 82.88 34.8161 83.2C34.8161 83.56 34.9561 83.848 35.2361 84.064C35.5161 84.28 35.9081 84.388 36.4121 84.388C36.8921 84.388 37.3041 84.28 37.6481 84.064C38.0001 83.84 38.2561 83.52 38.4161 83.104L38.6081 83.692C38.4481 84.108 38.1681 84.44 37.7681 84.688C37.3761 84.936 36.8801 85.06 36.2801 85.06ZM41.5362 85V78.7H46.0002V79.444H42.1722L42.3882 79.228V85H41.5362ZM51.1435 85V83.608L51.1075 83.38V81.052C51.1075 80.516 50.9555 80.104 50.6515 79.816C50.3555 79.528 49.9115 79.384 49.3195 79.384C48.9115 79.384 48.5235 79.452 48.1555 79.588C47.7875 79.724 47.4755 79.904 47.2195 80.128L46.8355 79.492C47.1555 79.22 47.5395 79.012 47.9875 78.868C48.4355 78.716 48.9075 78.64 49.4035 78.64C50.2195 78.64 50.8475 78.844 51.2875 79.252C51.7355 79.652 51.9595 80.264 51.9595 81.088V85H51.1435ZM48.9715 85.06C48.4995 85.06 48.0875 84.984 47.7355 84.832C47.3915 84.672 47.1275 84.456 46.9435 84.184C46.7595 83.904 46.6675 83.584 46.6675 83.224C46.6675 82.896 46.7435 82.6 46.8955 82.336C47.0555 82.064 47.3115 81.848 47.6635 81.688C48.0235 81.52 48.5035 81.436 49.1035 81.436H51.2755V82.072H49.1275C48.5195 82.072 48.0955 82.18 47.8555 82.396C47.6235 82.612 47.5075 82.88 47.5075 83.2C47.5075 83.56 47.6475 83.848 47.9275 84.064C48.2075 84.28 48.5995 84.388 49.1035 84.388C49.5835 84.388 49.9955 84.28 50.3395 84.064C50.6915 83.84 50.9475 83.52 51.1075 83.104L51.2995 83.692C51.1395 84.108 50.8595 84.44 50.4595 84.688C50.0675 84.936 49.5715 85.06 48.9715 85.06ZM57.4796 85.06C56.9356 85.06 56.4436 84.936 56.0036 84.688C55.5636 84.432 55.2116 84.068 54.9476 83.596C54.6916 83.116 54.5636 82.532 54.5636 81.844C54.5636 81.156 54.6916 80.576 54.9476 80.104C55.2036 79.624 55.5516 79.26 55.9916 79.012C56.4316 78.764 56.9276 78.64 57.4796 78.64C58.0796 78.64 58.6156 78.776 59.0876 79.048C59.5676 79.312 59.9436 79.688 60.2156 80.176C60.4876 80.656 60.6236 81.212 60.6236 81.844C60.6236 82.484 60.4876 83.044 60.2156 83.524C59.9436 84.004 59.5676 84.38 59.0876 84.652C58.6156 84.924 58.0796 85.06 57.4796 85.06ZM54.2276 87.328V78.7H55.0436V80.596L54.9596 81.856L55.0796 83.128V87.328H54.2276ZM57.4196 84.304C57.8676 84.304 58.2676 84.204 58.6196 84.004C58.9716 83.796 59.2516 83.508 59.4596 83.14C59.6676 82.764 59.7716 82.332 59.7716 81.844C59.7716 81.356 59.6676 80.928 59.4596 80.56C59.2516 80.192 58.9716 79.904 58.6196 79.696C58.2676 79.488 57.8676 79.384 57.4196 79.384C56.9716 79.384 56.5676 79.488 56.2076 79.696C55.8556 79.904 55.5756 80.192 55.3676 80.56C55.1676 80.928 55.0676 81.356 55.0676 81.844C55.0676 82.332 55.1676 82.764 55.3676 83.14C55.5756 83.508 55.8556 83.796 56.2076 84.004C56.5676 84.204 56.9716 84.304 57.4196 84.304ZM62.4542 85V78.7H63.3062V83.704L67.5182 78.7H68.2742V85H67.4222V79.984L63.2222 85H62.4542ZM70.7159 85V78.7H71.5679V81.484H75.5399V78.7H76.3919V85H75.5399V82.216H71.5679V85H70.7159ZM81.4536 85.06C80.8296 85.06 80.2696 84.924 79.7736 84.652C79.2856 84.372 78.9016 83.992 78.6216 83.512C78.3416 83.024 78.2016 82.468 78.2016 81.844C78.2016 81.212 78.3416 80.656 78.6216 80.176C78.9016 79.696 79.2856 79.32 79.7736 79.048C80.2696 78.776 80.8296 78.64 81.4536 78.64C81.9896 78.64 82.4736 78.744 82.9056 78.952C83.3376 79.16 83.6776 79.472 83.9256 79.888L83.2896 80.32C83.0736 80 82.8056 79.764 82.4856 79.612C82.1656 79.46 81.8176 79.384 81.4416 79.384C80.9936 79.384 80.5896 79.488 80.2296 79.696C79.8696 79.896 79.5856 80.18 79.3776 80.548C79.1696 80.916 79.0656 81.348 79.0656 81.844C79.0656 82.34 79.1696 82.772 79.3776 83.14C79.5856 83.508 79.8696 83.796 80.2296 84.004C80.5896 84.204 80.9936 84.304 81.4416 84.304C81.8176 84.304 82.1656 84.228 82.4856 84.076C82.8056 83.924 83.0736 83.692 83.2896 83.38L83.9256 83.812C83.6776 84.22 83.3376 84.532 82.9056 84.748C82.4736 84.956 81.9896 85.06 81.4536 85.06ZM90.1953 85L87.6033 81.88L88.3113 81.46L91.2033 85H90.1953ZM85.5753 85V78.7H86.4273V85H85.5753ZM86.1633 82.192V81.46H88.1913V82.192H86.1633ZM88.3833 81.94L87.5913 81.82L90.0993 78.7H91.0233L88.3833 81.94ZM96.3428 85V83.608L96.3068 83.38V81.052C96.3068 80.516 96.1548 80.104 95.8508 79.816C95.5548 79.528 95.1108 79.384 94.5188 79.384C94.1108 79.384 93.7228 79.452 93.3548 79.588C92.9868 79.724 92.6748 79.904 92.4188 80.128L92.0348 79.492C92.3548 79.22 92.7388 79.012 93.1868 78.868C93.6348 78.716 94.1068 78.64 94.6028 78.64C95.4188 78.64 96.0468 78.844 96.4868 79.252C96.9348 79.652 97.1588 80.264 97.1588 81.088V85H96.3428ZM94.1708 85.06C93.6988 85.06 93.2868 84.984 92.9348 84.832C92.5908 84.672 92.3268 84.456 92.1428 84.184C91.9588 83.904 91.8668 83.584 91.8668 83.224C91.8668 82.896 91.9428 82.6 92.0948 82.336C92.2548 82.064 92.5108 81.848 92.8628 81.688C93.2228 81.52 93.7028 81.436 94.3027 81.436H96.4748V82.072H94.3268C93.7188 82.072 93.2948 82.18 93.0548 82.396C92.8228 82.612 92.7068 82.88 92.7068 83.2C92.7068 83.56 92.8468 83.848 93.1268 84.064C93.4068 84.28 93.7988 84.388 94.3027 84.388C94.7828 84.388 95.1948 84.28 95.5388 84.064C95.8908 83.84 96.1468 83.52 96.3068 83.104L96.4988 83.692C96.3388 84.108 96.0588 84.44 95.6588 84.688C95.2668 84.936 94.7708 85.06 94.1708 85.06ZM103.495 85V82.732L103.651 82.912H101.515C100.707 82.912 100.075 82.736 99.6188 82.384C99.1628 82.032 98.9348 81.52 98.9348 80.848C98.9348 80.128 99.1788 79.592 99.6668 79.24C100.155 78.88 100.807 78.7 101.623 78.7H104.275V85H103.495ZM98.8868 85L100.615 82.576H101.503L99.8108 85H98.8868ZM103.495 82.48V79.192L103.651 79.444H101.647C101.063 79.444 100.607 79.556 100.279 79.78C99.9588 80.004 99.7988 80.368 99.7988 80.872C99.7988 81.808 100.395 82.276 101.587 82.276H103.651L103.495 82.48Z" fill="#393335"/>
<path d="M56.7679 59C57.5377 57.6667 59.4623 57.6667 60.2321 59L65.8612 68.75C66.631 70.0833 65.6688 71.75 64.1292 71.75H52.8708C51.3312 71.75 50.369 70.0833 51.1388 68.75L56.7679 59Z" fill="white"/>
</svg>
