<svg width="202" height="94" viewBox="0 0 202 94" fill="none" xmlns="http://www.w3.org/2000/svg">
<circle cx="101" cy="69" r="25" fill="white"/>
<path fill-rule="evenodd" clip-rule="evenodd" d="M107.552 58L101.5 69.7021L95.4483 58L88 78.5957H94.0517L96.8448 70.6383L101.5 80L106.155 70.6383L108.948 78.5957H115L107.552 58Z" fill="#9C163A"/>
<path d="M0 5C0 2.23858 2.23858 0 5 0H197C199.761 0 202 2.23858 202 5V19C202 21.7614 199.761 24 197 24H5C2.23858 24 0 21.7614 0 19V5Z" fill="white"/>
<path d="M9.852 16.06C9.228 16.06 8.668 15.924 8.172 15.652C7.684 15.372 7.3 14.992 7.02 14.512C6.74 14.024 6.6 13.468 6.6 12.844C6.6 12.212 6.74 11.656 7.02 11.176C7.3 10.696 7.684 10.32 8.172 10.048C8.668 9.776 9.228 9.64 9.852 9.64C10.388 9.64 10.872 9.744 11.304 9.952C11.736 10.16 12.076 10.472 12.324 10.888L11.688 11.32C11.472 11 11.204 10.764 10.884 10.612C10.564 10.46 10.216 10.384 9.84 10.384C9.392 10.384 8.988 10.488 8.628 10.696C8.268 10.896 7.984 11.18 7.776 11.548C7.568 11.916 7.464 12.348 7.464 12.844C7.464 13.34 7.568 13.772 7.776 14.14C7.984 14.508 8.268 14.796 8.628 15.004C8.988 15.204 9.392 15.304 9.84 15.304C10.216 15.304 10.564 15.228 10.884 15.076C11.204 14.924 11.472 14.692 11.688 14.38L12.324 14.812C12.076 15.22 11.736 15.532 11.304 15.748C10.872 15.956 10.388 16.06 9.852 16.06ZM15.0565 16V10.216L15.2725 10.444H12.6685V9.7H18.2965V10.444H15.6925L15.9085 10.216V16H15.0565ZM19.0493 16.06C18.8733 16.06 18.7213 15.996 18.5933 15.868C18.4733 15.74 18.4133 15.584 18.4133 15.4C18.4133 15.208 18.4733 15.052 18.5933 14.932C18.7213 14.812 18.8733 14.752 19.0493 14.752C19.2253 14.752 19.3733 14.812 19.4933 14.932C19.6213 15.052 19.6853 15.208 19.6853 15.4C19.6853 15.584 19.6213 15.74 19.4933 15.868C19.3733 15.996 19.2253 16.06 19.0493 16.06ZM24.6729 16V9.7H30.3369V16H29.4849V10.216L29.7009 10.444H25.3089L25.5249 10.216V16H24.6729ZM31.6069 15.988L31.6669 15.256C31.7229 15.264 31.7749 15.276 31.8229 15.292C31.8789 15.3 31.9269 15.304 31.9669 15.304C32.2229 15.304 32.4269 15.208 32.5789 15.016C32.7389 14.824 32.8589 14.568 32.9389 14.248C33.0189 13.928 33.0749 13.568 33.1069 13.168C33.1389 12.76 33.1669 12.352 33.1909 11.944L33.2989 9.7H37.9189V16H37.0669V10.192L37.2829 10.444H33.8509L34.0549 10.18L33.9589 12.004C33.9349 12.548 33.8909 13.068 33.8269 13.564C33.7709 14.06 33.6789 14.496 33.5509 14.872C33.4309 15.248 33.2629 15.544 33.0469 15.76C32.8309 15.968 32.5549 16.072 32.2189 16.072C32.1229 16.072 32.0229 16.064 31.9189 16.048C31.8229 16.032 31.7189 16.012 31.6069 15.988ZM40.4009 16.06C40.2249 16.06 40.0729 15.996 39.9449 15.868C39.8249 15.74 39.7649 15.584 39.7649 15.4C39.7649 15.208 39.8249 15.052 39.9449 14.932C40.0729 14.812 40.2249 14.752 40.4009 14.752C40.5769 14.752 40.7249 14.812 40.8449 14.932C40.9729 15.052 41.0369 15.208 41.0369 15.4C41.0369 15.584 40.9729 15.74 40.8449 15.868C40.7249 15.996 40.5769 16.06 40.4009 16.06ZM46.2285 16V7.6H51.5685V8.368H46.8645L47.0925 8.14L47.1045 16H46.2285ZM56.8037 16V14.608L56.7677 14.38V12.052C56.7677 11.516 56.6157 11.104 56.3117 10.816C56.0157 10.528 55.5717 10.384 54.9797 10.384C54.5717 10.384 54.1837 10.452 53.8157 10.588C53.4477 10.724 53.1357 10.904 52.8797 11.128L52.4957 10.492C52.8157 10.22 53.1997 10.012 53.6477 9.868C54.0957 9.716 54.5677 9.64 55.0637 9.64C55.8797 9.64 56.5077 9.844 56.9477 10.252C57.3957 10.652 57.6197 11.264 57.6197 12.088V16H56.8037ZM54.6317 16.06C54.1597 16.06 53.7477 15.984 53.3957 15.832C53.0517 15.672 52.7877 15.456 52.6037 15.184C52.4197 14.904 52.3277 14.584 52.3277 14.224C52.3277 13.896 52.4037 13.6 52.5557 13.336C52.7157 13.064 52.9717 12.848 53.3237 12.688C53.6837 12.52 54.1637 12.436 54.7637 12.436H56.9357V13.072H54.7877C54.1797 13.072 53.7557 13.18 53.5157 13.396C53.2837 13.612 53.1677 13.88 53.1677 14.2C53.1677 14.56 53.3077 14.848 53.5877 15.064C53.8677 15.28 54.2597 15.388 54.7637 15.388C55.2437 15.388 55.6557 15.28 55.9997 15.064C56.3517 14.84 56.6077 14.52 56.7677 14.104L56.9597 14.692C56.7997 15.108 56.5197 15.44 56.1197 15.688C55.7277 15.936 55.2317 16.06 54.6317 16.06ZM63.1398 16.06C62.5958 16.06 62.1038 15.936 61.6638 15.688C61.2238 15.432 60.8718 15.068 60.6078 14.596C60.3518 14.116 60.2238 13.532 60.2238 12.844C60.2238 12.156 60.3518 11.576 60.6078 11.104C60.8638 10.624 61.2118 10.26 61.6518 10.012C62.0918 9.764 62.5878 9.64 63.1398 9.64C63.7398 9.64 64.2758 9.776 64.7478 10.048C65.2278 10.312 65.6038 10.688 65.8758 11.176C66.1478 11.656 66.2838 12.212 66.2838 12.844C66.2838 13.484 66.1478 14.044 65.8758 14.524C65.6038 15.004 65.2278 15.38 64.7478 15.652C64.2758 15.924 63.7398 16.06 63.1398 16.06ZM59.8878 18.328V9.7H60.7038V11.596L60.6198 12.856L60.7398 14.128V18.328H59.8878ZM63.0798 15.304C63.5278 15.304 63.9278 15.204 64.2798 15.004C64.6318 14.796 64.9118 14.508 65.1198 14.14C65.3278 13.764 65.4318 13.332 65.4318 12.844C65.4318 12.356 65.3278 11.928 65.1198 11.56C64.9118 11.192 64.6318 10.904 64.2798 10.696C63.9278 10.488 63.5278 10.384 63.0798 10.384C62.6318 10.384 62.2278 10.488 61.8678 10.696C61.5158 10.904 61.2358 11.192 61.0278 11.56C60.8278 11.928 60.7278 12.356 60.7278 12.844C60.7278 13.332 60.8278 13.764 61.0278 14.14C61.2358 14.508 61.5158 14.796 61.8678 15.004C62.2278 15.204 62.6318 15.304 63.0798 15.304ZM68.1143 16V9.7H68.9663V14.704L73.1783 9.7H73.9343V16H73.0823V10.984L68.8823 16H68.1143ZM76.3761 16V9.7H77.2281V12.484H81.2001V9.7H82.0521V16H81.2001V13.216H77.2281V16H76.3761ZM88.3857 16V14.608L88.3497 14.38V12.052C88.3497 11.516 88.1977 11.104 87.8937 10.816C87.5977 10.528 87.1537 10.384 86.5617 10.384C86.1537 10.384 85.7657 10.452 85.3977 10.588C85.0297 10.724 84.7177 10.904 84.4617 11.128L84.0777 10.492C84.3977 10.22 84.7817 10.012 85.2297 9.868C85.6777 9.716 86.1497 9.64 86.6457 9.64C87.4617 9.64 88.0897 9.844 88.5297 10.252C88.9777 10.652 89.2017 11.264 89.2017 12.088V16H88.3857ZM86.2137 16.06C85.7417 16.06 85.3297 15.984 84.9777 15.832C84.6337 15.672 84.3697 15.456 84.1857 15.184C84.0017 14.904 83.9097 14.584 83.9097 14.224C83.9097 13.896 83.9857 13.6 84.1377 13.336C84.2977 13.064 84.5537 12.848 84.9057 12.688C85.2657 12.52 85.7457 12.436 86.3457 12.436H88.5177V13.072H86.3697C85.7617 13.072 85.3377 13.18 85.0977 13.396C84.8657 13.612 84.7497 13.88 84.7497 14.2C84.7497 14.56 84.8897 14.848 85.1697 15.064C85.4497 15.28 85.8417 15.388 86.3457 15.388C86.8257 15.388 87.2377 15.28 87.5817 15.064C87.9337 14.84 88.1897 14.52 88.3497 14.104L88.5417 14.692C88.3817 15.108 88.1017 15.44 87.7017 15.688C87.3097 15.936 86.8137 16.06 86.2137 16.06ZM90.9778 13.12V12.376H94.1218V13.12H90.9778ZM96.2558 16V7.6H96.9878L100.828 14.152H100.444L104.248 7.6H104.98V16H104.128V8.932H104.332L100.828 14.932H100.408L96.8798 8.932H97.1078V16H96.2558ZM107.607 16V9.7H108.459V14.704L112.671 9.7H113.427V16H112.575V10.984L108.375 16H107.607ZM114.836 16L117.5 12.544L117.488 12.964L114.956 9.7H115.916L117.992 12.4L117.632 12.388L119.708 9.7H120.644L118.088 13L118.1 12.544L120.788 16H119.816L117.62 13.12L117.956 13.168L115.796 16H114.836ZM125.979 16V14.608L125.943 14.38V12.052C125.943 11.516 125.791 11.104 125.487 10.816C125.191 10.528 124.747 10.384 124.155 10.384C123.747 10.384 123.359 10.452 122.991 10.588C122.623 10.724 122.311 10.904 122.055 11.128L121.671 10.492C121.991 10.22 122.375 10.012 122.823 9.868C123.271 9.716 123.743 9.64 124.239 9.64C125.055 9.64 125.683 9.844 126.123 10.252C126.571 10.652 126.795 11.264 126.795 12.088V16H125.979ZM123.807 16.06C123.335 16.06 122.923 15.984 122.571 15.832C122.227 15.672 121.963 15.456 121.779 15.184C121.595 14.904 121.503 14.584 121.503 14.224C121.503 13.896 121.579 13.6 121.731 13.336C121.891 13.064 122.147 12.848 122.499 12.688C122.859 12.52 123.339 12.436 123.939 12.436H126.111V13.072H123.963C123.355 13.072 122.931 13.18 122.691 13.396C122.459 13.612 122.343 13.88 122.343 14.2C122.343 14.56 122.483 14.848 122.763 15.064C123.043 15.28 123.435 15.388 123.939 15.388C124.419 15.388 124.831 15.28 125.175 15.064C125.527 14.84 125.783 14.52 125.943 14.104L126.135 14.692C125.975 15.108 125.695 15.44 125.295 15.688C124.903 15.936 124.407 16.06 123.807 16.06ZM129.064 16V9.7H129.916V14.704L134.128 9.7H134.884V16H134.032V10.984L129.832 16H129.064ZM131.92 8.788C131.392 8.788 130.964 8.656 130.636 8.392C130.316 8.12 130.148 7.732 130.132 7.228H130.744C130.752 7.548 130.864 7.8 131.08 7.984C131.296 8.168 131.576 8.26 131.92 8.26C132.264 8.26 132.544 8.168 132.76 7.984C132.984 7.8 133.1 7.548 133.108 7.228H133.72C133.712 7.732 133.544 8.12 133.216 8.392C132.888 8.656 132.456 8.788 131.92 8.788ZM136.173 15.988L136.233 15.256C136.289 15.264 136.341 15.276 136.389 15.292C136.445 15.3 136.493 15.304 136.533 15.304C136.789 15.304 136.993 15.208 137.145 15.016C137.305 14.824 137.425 14.568 137.505 14.248C137.585 13.928 137.641 13.568 137.673 13.168C137.705 12.76 137.733 12.352 137.757 11.944L137.865 9.7H142.485V16H141.633V10.192L141.849 10.444H138.417L138.621 10.18L138.525 12.004C138.501 12.548 138.457 13.068 138.393 13.564C138.337 14.06 138.245 14.496 138.117 14.872C137.997 15.248 137.829 15.544 137.613 15.76C137.397 15.968 137.121 16.072 136.785 16.072C136.689 16.072 136.589 16.064 136.485 16.048C136.389 16.032 136.285 16.012 136.173 15.988ZM147.499 16.06C146.891 16.06 146.343 15.924 145.855 15.652C145.375 15.372 144.995 14.992 144.715 14.512C144.435 14.024 144.295 13.468 144.295 12.844C144.295 12.212 144.435 11.656 144.715 11.176C144.995 10.696 145.375 10.32 145.855 10.048C146.335 9.776 146.883 9.64 147.499 9.64C148.123 9.64 148.675 9.776 149.155 10.048C149.643 10.32 150.023 10.696 150.295 11.176C150.575 11.656 150.715 12.212 150.715 12.844C150.715 13.468 150.575 14.024 150.295 14.512C150.023 14.992 149.643 15.372 149.155 15.652C148.667 15.924 148.115 16.06 147.499 16.06ZM147.499 15.304C147.955 15.304 148.359 15.204 148.711 15.004C149.063 14.796 149.339 14.508 149.539 14.14C149.747 13.764 149.851 13.332 149.851 12.844C149.851 12.348 149.747 11.916 149.539 11.548C149.339 11.18 149.063 10.896 148.711 10.696C148.359 10.488 147.959 10.384 147.511 10.384C147.063 10.384 146.663 10.488 146.311 10.696C145.959 10.896 145.679 11.18 145.471 11.548C145.263 11.916 145.159 12.348 145.159 12.844C145.159 13.332 145.263 13.764 145.471 14.14C145.679 14.508 145.959 14.796 146.311 15.004C146.663 15.204 147.059 15.304 147.499 15.304ZM152.536 16V9.7H155.32C156.032 9.7 156.592 9.836 157 10.108C157.416 10.38 157.624 10.78 157.624 11.308C157.624 11.82 157.428 12.216 157.036 12.496C156.644 12.768 156.128 12.904 155.488 12.904L155.656 12.652C156.408 12.652 156.96 12.792 157.312 13.072C157.664 13.352 157.84 13.756 157.84 14.284C157.84 14.828 157.64 15.252 157.24 15.556C156.848 15.852 156.236 16 155.404 16H152.536ZM153.364 15.328H155.368C155.904 15.328 156.308 15.244 156.58 15.076C156.86 14.9 157 14.62 157 14.236C157 13.852 156.876 13.572 156.628 13.396C156.38 13.22 155.988 13.132 155.452 13.132H153.364V15.328ZM153.364 12.496H155.26C155.748 12.496 156.12 12.404 156.376 12.22C156.64 12.036 156.772 11.768 156.772 11.416C156.772 11.064 156.64 10.8 156.376 10.624C156.12 10.448 155.748 10.36 155.26 10.36H153.364V12.496ZM162.477 16.06C161.853 16.06 161.293 15.924 160.797 15.652C160.309 15.372 159.925 14.992 159.645 14.512C159.365 14.024 159.225 13.468 159.225 12.844C159.225 12.212 159.365 11.656 159.645 11.176C159.925 10.696 160.309 10.32 160.797 10.048C161.293 9.776 161.853 9.64 162.477 9.64C163.013 9.64 163.497 9.744 163.929 9.952C164.361 10.16 164.701 10.472 164.949 10.888L164.313 11.32C164.097 11 163.829 10.764 163.509 10.612C163.189 10.46 162.841 10.384 162.465 10.384C162.017 10.384 161.613 10.488 161.253 10.696C160.893 10.896 160.609 11.18 160.401 11.548C160.193 11.916 160.089 12.348 160.089 12.844C160.089 13.34 160.193 13.772 160.401 14.14C160.609 14.508 160.893 14.796 161.253 15.004C161.613 15.204 162.017 15.304 162.465 15.304C162.841 15.304 163.189 15.228 163.509 15.076C163.829 14.924 164.097 14.692 164.313 14.38L164.949 14.812C164.701 15.22 164.361 15.532 163.929 15.748C163.497 15.956 163.013 16.06 162.477 16.06ZM171.219 16L168.627 12.88L169.335 12.46L172.227 16H171.219ZM166.599 16V9.7H167.451V16H166.599ZM167.187 13.192V12.46H169.215V13.192H167.187ZM169.407 12.94L168.615 12.82L171.123 9.7H172.047L169.407 12.94ZM175.941 16.06C175.333 16.06 174.785 15.924 174.297 15.652C173.817 15.372 173.437 14.992 173.157 14.512C172.877 14.024 172.737 13.468 172.737 12.844C172.737 12.212 172.877 11.656 173.157 11.176C173.437 10.696 173.817 10.32 174.297 10.048C174.777 9.776 175.325 9.64 175.941 9.64C176.565 9.64 177.117 9.776 177.597 10.048C178.085 10.32 178.465 10.696 178.737 11.176C179.017 11.656 179.157 12.212 179.157 12.844C179.157 13.468 179.017 14.024 178.737 14.512C178.465 14.992 178.085 15.372 177.597 15.652C177.109 15.924 176.557 16.06 175.941 16.06ZM175.941 15.304C176.397 15.304 176.801 15.204 177.153 15.004C177.505 14.796 177.781 14.508 177.981 14.14C178.189 13.764 178.293 13.332 178.293 12.844C178.293 12.348 178.189 11.916 177.981 11.548C177.781 11.18 177.505 10.896 177.153 10.696C176.801 10.488 176.401 10.384 175.953 10.384C175.505 10.384 175.105 10.488 174.753 10.696C174.401 10.896 174.121 11.18 173.913 11.548C173.705 11.916 173.601 12.348 173.601 12.844C173.601 13.332 173.705 13.764 173.913 14.14C174.121 14.508 174.401 14.796 174.753 15.004C175.105 15.204 175.501 15.304 175.941 15.304ZM180.978 16V9.7H185.442V10.444H181.614L181.83 10.228V16H180.978ZM188.972 16.06C188.364 16.06 187.816 15.924 187.328 15.652C186.848 15.372 186.468 14.992 186.188 14.512C185.908 14.024 185.768 13.468 185.768 12.844C185.768 12.212 185.908 11.656 186.188 11.176C186.468 10.696 186.848 10.32 187.328 10.048C187.808 9.776 188.356 9.64 188.972 9.64C189.596 9.64 190.148 9.776 190.628 10.048C191.116 10.32 191.496 10.696 191.768 11.176C192.048 11.656 192.188 12.212 192.188 12.844C192.188 13.468 192.048 14.024 191.768 14.512C191.496 14.992 191.116 15.372 190.628 15.652C190.14 15.924 189.588 16.06 188.972 16.06ZM188.972 15.304C189.428 15.304 189.832 15.204 190.184 15.004C190.536 14.796 190.812 14.508 191.012 14.14C191.22 13.764 191.324 13.332 191.324 12.844C191.324 12.348 191.22 11.916 191.012 11.548C190.812 11.18 190.536 10.896 190.184 10.696C189.832 10.488 189.432 10.384 188.984 10.384C188.536 10.384 188.136 10.488 187.784 10.696C187.432 10.896 187.152 11.18 186.944 11.548C186.736 11.916 186.632 12.348 186.632 12.844C186.632 13.332 186.736 13.764 186.944 14.14C187.152 14.508 187.432 14.796 187.784 15.004C188.136 15.204 188.532 15.304 188.972 15.304Z" fill="#393335"/>
<path d="M99.7679 34C100.538 35.3333 102.462 35.3333 103.232 34L108.861 24.25C109.631 22.9167 108.669 21.25 107.129 21.25H95.8708C94.3312 21.25 93.369 22.9167 94.1388 24.25L99.7679 34Z" fill="white"/>
</svg>
