<svg width="94" height="108" viewBox="0 0 94 108" fill="none" xmlns="http://www.w3.org/2000/svg">
<circle cx="46" cy="25" r="25" fill="white"/>
<path fill-rule="evenodd" clip-rule="evenodd" d="M52.5517 14L46.5 25.7021L40.4483 14L33 34.5957H39.0517L41.8448 26.6383L46.5 36L51.1552 26.6383L53.9483 34.5957H60L52.5517 14Z" fill="#9C163A"/>
<rect y="70" width="94" height="38" rx="5" fill="white"/>
<path d="M14.102 86.06C13.478 86.06 12.918 85.924 12.422 85.652C11.934 85.372 11.55 84.992 11.27 84.512C10.99 84.024 10.85 83.468 10.85 82.844C10.85 82.212 10.99 81.656 11.27 81.176C11.55 80.696 11.934 80.32 12.422 80.048C12.918 79.776 13.478 79.64 14.102 79.64C14.638 79.64 15.122 79.744 15.554 79.952C15.986 80.16 16.326 80.472 16.574 80.888L15.938 81.32C15.722 81 15.454 80.764 15.134 80.612C14.814 80.46 14.466 80.384 14.09 80.384C13.642 80.384 13.238 80.488 12.878 80.696C12.518 80.896 12.234 81.18 12.026 81.548C11.818 81.916 11.714 82.348 11.714 82.844C11.714 83.34 11.818 83.772 12.026 84.14C12.234 84.508 12.518 84.796 12.878 85.004C13.238 85.204 13.642 85.304 14.09 85.304C14.466 85.304 14.814 85.228 15.134 85.076C15.454 84.924 15.722 84.692 15.938 84.38L16.574 84.812C16.326 85.22 15.986 85.532 15.554 85.748C15.122 85.956 14.638 86.06 14.102 86.06ZM19.3065 86V80.216L19.5225 80.444H16.9185V79.7H22.5465V80.444H19.9425L20.1585 80.216V86H19.3065ZM23.2993 86.06C23.1233 86.06 22.9713 85.996 22.8433 85.868C22.7233 85.74 22.6633 85.584 22.6633 85.4C22.6633 85.208 22.7233 85.052 22.8433 84.932C22.9713 84.812 23.1233 84.752 23.2993 84.752C23.4753 84.752 23.6233 84.812 23.7433 84.932C23.8713 85.052 23.9353 85.208 23.9353 85.4C23.9353 85.584 23.8713 85.74 23.7433 85.868C23.6233 85.996 23.4753 86.06 23.2993 86.06ZM34.8749 86L31.6469 81.812L32.3669 81.38L35.8949 86H34.8749ZM29.1269 86V77.6H29.9909V86H29.1269ZM29.7269 82.148V81.368H32.3549V82.148H29.7269ZM32.4389 81.896L31.6229 81.752L34.7549 77.6H35.7149L32.4389 81.896ZM40.4835 86.06C39.9395 86.06 39.4475 85.936 39.0075 85.688C38.5675 85.432 38.2155 85.068 37.9515 84.596C37.6955 84.116 37.5675 83.532 37.5675 82.844C37.5675 82.156 37.6955 81.576 37.9515 81.104C38.2075 80.624 38.5555 80.26 38.9955 80.012C39.4355 79.764 39.9315 79.64 40.4835 79.64C41.0835 79.64 41.6195 79.776 42.0915 80.048C42.5715 80.312 42.9475 80.688 43.2195 81.176C43.4915 81.656 43.6275 82.212 43.6275 82.844C43.6275 83.484 43.4915 84.044 43.2195 84.524C42.9475 85.004 42.5715 85.38 42.0915 85.652C41.6195 85.924 41.0835 86.06 40.4835 86.06ZM37.2315 88.328V79.7H38.0475V81.596L37.9635 82.856L38.0835 84.128V88.328H37.2315ZM40.4235 85.304C40.8715 85.304 41.2715 85.204 41.6235 85.004C41.9755 84.796 42.2555 84.508 42.4635 84.14C42.6715 83.764 42.7755 83.332 42.7755 82.844C42.7755 82.356 42.6715 81.928 42.4635 81.56C42.2555 81.192 41.9755 80.904 41.6235 80.696C41.2715 80.488 40.8715 80.384 40.4235 80.384C39.9755 80.384 39.5715 80.488 39.2115 80.696C38.8595 80.904 38.5795 81.192 38.3715 81.56C38.1715 81.928 38.0715 82.356 38.0715 82.844C38.0715 83.332 38.1715 83.764 38.3715 84.14C38.5795 84.508 38.8595 84.796 39.2115 85.004C39.5715 85.204 39.9755 85.304 40.4235 85.304ZM49.3349 86V84.608L49.2989 84.38V82.052C49.2989 81.516 49.1469 81.104 48.8429 80.816C48.5469 80.528 48.1029 80.384 47.5109 80.384C47.1029 80.384 46.7149 80.452 46.3469 80.588C45.9789 80.724 45.6669 80.904 45.4109 81.128L45.0269 80.492C45.3469 80.22 45.7309 80.012 46.1789 79.868C46.6269 79.716 47.0989 79.64 47.5949 79.64C48.4109 79.64 49.0389 79.844 49.4789 80.252C49.9269 80.652 50.1509 81.264 50.1509 82.088V86H49.3349ZM47.1629 86.06C46.6909 86.06 46.2789 85.984 45.9269 85.832C45.5829 85.672 45.3189 85.456 45.1349 85.184C44.9509 84.904 44.8589 84.584 44.8589 84.224C44.8589 83.896 44.9349 83.6 45.0869 83.336C45.2469 83.064 45.5029 82.848 45.8549 82.688C46.2149 82.52 46.6949 82.436 47.2949 82.436H49.4669V83.072H47.3189C46.7109 83.072 46.2869 83.18 46.0469 83.396C45.8149 83.612 45.6989 83.88 45.6989 84.2C45.6989 84.56 45.8389 84.848 46.1189 85.064C46.3989 85.28 46.7909 85.388 47.2949 85.388C47.7749 85.388 48.1869 85.28 48.5309 85.064C48.8829 84.84 49.1389 84.52 49.2989 84.104L49.4909 84.692C49.3309 85.108 49.0509 85.44 48.6509 85.688C48.2589 85.936 47.7629 86.06 47.1629 86.06ZM55.059 86.06C54.435 86.06 53.875 85.924 53.379 85.652C52.891 85.372 52.507 84.992 52.227 84.512C51.947 84.024 51.807 83.468 51.807 82.844C51.807 82.212 51.947 81.656 52.227 81.176C52.507 80.696 52.891 80.32 53.379 80.048C53.875 79.776 54.435 79.64 55.059 79.64C55.595 79.64 56.079 79.744 56.511 79.952C56.943 80.16 57.283 80.472 57.531 80.888L56.895 81.32C56.679 81 56.411 80.764 56.091 80.612C55.771 80.46 55.423 80.384 55.047 80.384C54.599 80.384 54.195 80.488 53.835 80.696C53.475 80.896 53.191 81.18 52.983 81.548C52.775 81.916 52.671 82.348 52.671 82.844C52.671 83.34 52.775 83.772 52.983 84.14C53.191 84.508 53.475 84.796 53.835 85.004C54.195 85.204 54.599 85.304 55.047 85.304C55.423 85.304 55.771 85.228 56.091 85.076C56.411 84.924 56.679 84.692 56.895 84.38L57.531 84.812C57.283 85.22 56.943 85.532 56.511 85.748C56.079 85.956 55.595 86.06 55.059 86.06ZM59.1808 86V79.7H60.0328V82.484H64.0048V79.7H64.8568V86H64.0048V83.216H60.0328V86H59.1808ZM73.4224 86V79.7H74.2744V86H73.4224ZM69.9304 81.92C70.7224 81.928 71.3264 82.104 71.7424 82.448C72.1584 82.792 72.3664 83.288 72.3664 83.936C72.3664 84.608 72.1424 85.124 71.6944 85.484C71.2464 85.844 70.6064 86.02 69.7744 86.012L67.2784 86V79.7H68.1304V81.896L69.9304 81.92ZM69.7144 85.364C70.3064 85.372 70.7504 85.256 71.0464 85.016C71.3504 84.768 71.5024 84.408 71.5024 83.936C71.5024 83.464 71.3544 83.12 71.0584 82.904C70.7624 82.68 70.3144 82.564 69.7144 82.556L68.1304 82.532V85.34L69.7144 85.364ZM76.7003 86V79.7H77.5523V84.704L81.7643 79.7H82.5203V86H81.6683V80.984L77.4683 86H76.7003ZM79.5563 78.788C79.0283 78.788 78.6003 78.656 78.2723 78.392C77.9523 78.12 77.7843 77.732 77.7683 77.228H78.3803C78.3883 77.548 78.5003 77.8 78.7163 77.984C78.9323 78.168 79.2123 78.26 79.5563 78.26C79.9003 78.26 80.1803 78.168 80.3963 77.984C80.6203 77.8 80.7363 77.548 80.7443 77.228H81.3563C81.3483 77.732 81.1803 78.12 80.8523 78.392C80.5243 78.656 80.0923 78.788 79.5563 78.788ZM18.8507 101V94.7H24.5147V101H23.6627V95.216L23.8787 95.444H19.4867L19.7027 95.216V101H18.8507ZM30.1886 101.06C29.6446 101.06 29.1526 100.936 28.7126 100.688C28.2726 100.432 27.9206 100.068 27.6566 99.596C27.4006 99.116 27.2726 98.532 27.2726 97.844C27.2726 97.156 27.4006 96.576 27.6566 96.104C27.9126 95.624 28.2606 95.26 28.7006 95.012C29.1406 94.764 29.6366 94.64 30.1886 94.64C30.7886 94.64 31.3246 94.776 31.7966 95.048C32.2766 95.312 32.6526 95.688 32.9246 96.176C33.1966 96.656 33.3326 97.212 33.3326 97.844C33.3326 98.484 33.1966 99.044 32.9246 99.524C32.6526 100.004 32.2766 100.38 31.7966 100.652C31.3246 100.924 30.7886 101.06 30.1886 101.06ZM26.9366 103.328V94.7H27.7526V96.596L27.6686 97.856L27.7886 99.128V103.328H26.9366ZM30.1286 100.304C30.5766 100.304 30.9766 100.204 31.3286 100.004C31.6806 99.796 31.9606 99.508 32.1686 99.14C32.3766 98.764 32.4806 98.332 32.4806 97.844C32.4806 97.356 32.3766 96.928 32.1686 96.56C31.9606 96.192 31.6806 95.904 31.3286 95.696C30.9766 95.488 30.5766 95.384 30.1286 95.384C29.6806 95.384 29.2766 95.488 28.9166 95.696C28.5646 95.904 28.2846 96.192 28.0766 96.56C27.8766 96.928 27.7766 97.356 27.7766 97.844C27.7766 98.332 27.8766 98.764 28.0766 99.14C28.2846 99.508 28.5646 99.796 28.9166 100.004C29.2766 100.204 29.6806 100.304 30.1286 100.304ZM37.7552 101.06C37.1472 101.06 36.5992 100.924 36.1112 100.652C35.6312 100.372 35.2512 99.992 34.9712 99.512C34.6912 99.024 34.5512 98.468 34.5512 97.844C34.5512 97.212 34.6912 96.656 34.9712 96.176C35.2512 95.696 35.6312 95.32 36.1112 95.048C36.5912 94.776 37.1392 94.64 37.7552 94.64C38.3792 94.64 38.9312 94.776 39.4112 95.048C39.8992 95.32 40.2792 95.696 40.5512 96.176C40.8312 96.656 40.9712 97.212 40.9712 97.844C40.9712 98.468 40.8312 99.024 40.5512 99.512C40.2792 99.992 39.8992 100.372 39.4112 100.652C38.9232 100.924 38.3712 101.06 37.7552 101.06ZM37.7552 100.304C38.2112 100.304 38.6152 100.204 38.9672 100.004C39.3192 99.796 39.5952 99.508 39.7952 99.14C40.0032 98.764 40.1072 98.332 40.1072 97.844C40.1072 97.348 40.0032 96.916 39.7952 96.548C39.5952 96.18 39.3192 95.896 38.9672 95.696C38.6152 95.488 38.2152 95.384 37.7672 95.384C37.3192 95.384 36.9192 95.488 36.5672 95.696C36.2152 95.896 35.9352 96.18 35.7272 96.548C35.5192 96.916 35.4152 97.348 35.4152 97.844C35.4152 98.332 35.5192 98.764 35.7272 99.14C35.9352 99.508 36.2152 99.796 36.5672 100.004C36.9192 100.204 37.3152 100.304 37.7552 100.304ZM45.4321 101.06C44.8081 101.06 44.2481 100.924 43.7521 100.652C43.2641 100.372 42.8801 99.992 42.6001 99.512C42.3201 99.024 42.1801 98.468 42.1801 97.844C42.1801 97.212 42.3201 96.656 42.6001 96.176C42.8801 95.696 43.2641 95.32 43.7521 95.048C44.2481 94.776 44.8081 94.64 45.4321 94.64C45.9681 94.64 46.4521 94.744 46.8841 94.952C47.3161 95.16 47.6561 95.472 47.9041 95.888L47.2681 96.32C47.0521 96 46.7841 95.764 46.4641 95.612C46.1441 95.46 45.7961 95.384 45.4201 95.384C44.9721 95.384 44.5681 95.488 44.2081 95.696C43.8481 95.896 43.5641 96.18 43.3561 96.548C43.1481 96.916 43.0441 97.348 43.0441 97.844C43.0441 98.34 43.1481 98.772 43.3561 99.14C43.5641 99.508 43.8481 99.796 44.2081 100.004C44.5681 100.204 44.9721 100.304 45.4201 100.304C45.7961 100.304 46.1441 100.228 46.4641 100.076C46.7841 99.924 47.0521 99.692 47.2681 99.38L47.9041 99.812C47.6561 100.22 47.3161 100.532 46.8841 100.748C46.4521 100.956 45.9681 101.06 45.4321 101.06ZM49.5538 101V94.7H55.2178V101H54.3658V95.216L54.5818 95.444H50.1898L50.4058 95.216V101H49.5538ZM60.3397 101.06C59.6837 101.06 59.1077 100.924 58.6117 100.652C58.1157 100.372 57.7277 99.992 57.4477 99.512C57.1677 99.024 57.0277 98.468 57.0277 97.844C57.0277 97.22 57.1597 96.668 57.4237 96.188C57.6957 95.708 58.0637 95.332 58.5277 95.06C58.9997 94.78 59.5277 94.64 60.1117 94.64C60.7037 94.64 61.2277 94.776 61.6837 95.048C62.1477 95.312 62.5117 95.688 62.7757 96.176C63.0397 96.656 63.1717 97.212 63.1717 97.844C63.1717 97.884 63.1677 97.928 63.1597 97.976C63.1597 98.016 63.1597 98.06 63.1597 98.108H57.6757V97.472H62.7037L62.3677 97.724C62.3677 97.268 62.2677 96.864 62.0677 96.512C61.8757 96.152 61.6117 95.872 61.2757 95.672C60.9397 95.472 60.5517 95.372 60.1117 95.372C59.6797 95.372 59.2917 95.472 58.9477 95.672C58.6037 95.872 58.3357 96.152 58.1437 96.512C57.9517 96.872 57.8557 97.284 57.8557 97.748V97.88C57.8557 98.36 57.9597 98.784 58.1677 99.152C58.3837 99.512 58.6797 99.796 59.0557 100.004C59.4397 100.204 59.8757 100.304 60.3637 100.304C60.7477 100.304 61.1037 100.236 61.4317 100.1C61.7677 99.964 62.0557 99.756 62.2957 99.476L62.7757 100.028C62.4957 100.364 62.1437 100.62 61.7197 100.796C61.3037 100.972 60.8437 101.06 60.3397 101.06ZM69.6777 101L67.0857 97.88L67.7937 97.46L70.6857 101H69.6777ZM65.0577 101V94.7H65.9097V101H65.0577ZM65.6457 98.192V97.46H67.6737V98.192H65.6457ZM67.8657 97.94L67.0737 97.82L69.5817 94.7H70.5057L67.8657 97.94ZM73.1015 101V95.216L73.3175 95.444H70.7135V94.7H76.3415V95.444H73.7375L73.9535 95.216V101H73.1015Z" fill="#393335"/>
<path d="M45.7679 60C46.5377 58.6667 48.4623 58.6667 49.2321 60L54.8612 69.75C55.631 71.0833 54.6688 72.75 53.1292 72.75H41.8708C40.3312 72.75 39.369 71.0833 40.1388 69.75L45.7679 60Z" fill="white"/>
</svg>
