<svg width="180" height="95" viewBox="0 0 180 95" fill="none" xmlns="http://www.w3.org/2000/svg">
<circle cx="91" cy="25" r="25" fill="white"/>
<path fill-rule="evenodd" clip-rule="evenodd" d="M97.5517 14L91.5 25.7021L85.4483 14L78 34.5957H84.0517L86.8448 26.6383L91.5 36L96.1552 26.6383L98.9483 34.5957H105L97.5517 14Z" fill="#9C163A"/>
<rect y="71" width="180" height="24" rx="5" fill="white"/>
<path d="M12.852 87.06C12.228 87.06 11.668 86.924 11.172 86.652C10.684 86.372 10.3 85.992 10.02 85.512C9.74 85.024 9.6 84.468 9.6 83.844C9.6 83.212 9.74 82.656 10.02 82.176C10.3 81.696 10.684 81.32 11.172 81.048C11.668 80.776 12.228 80.64 12.852 80.64C13.388 80.64 13.872 80.744 14.304 80.952C14.736 81.16 15.076 81.472 15.324 81.888L14.688 82.32C14.472 82 14.204 81.764 13.884 81.612C13.564 81.46 13.216 81.384 12.84 81.384C12.392 81.384 11.988 81.488 11.628 81.696C11.268 81.896 10.984 82.18 10.776 82.548C10.568 82.916 10.464 83.348 10.464 83.844C10.464 84.34 10.568 84.772 10.776 85.14C10.984 85.508 11.268 85.796 11.628 86.004C11.988 86.204 12.392 86.304 12.84 86.304C13.216 86.304 13.564 86.228 13.884 86.076C14.204 85.924 14.472 85.692 14.688 85.38L15.324 85.812C15.076 86.22 14.736 86.532 14.304 86.748C13.872 86.956 13.388 87.06 12.852 87.06ZM18.0565 87V81.216L18.2725 81.444H15.6685V80.7H21.2965V81.444H18.6925L18.9085 81.216V87H18.0565ZM22.0493 87.06C21.8733 87.06 21.7213 86.996 21.5933 86.868C21.4733 86.74 21.4133 86.584 21.4133 86.4C21.4133 86.208 21.4733 86.052 21.5933 85.932C21.7213 85.812 21.8733 85.752 22.0493 85.752C22.2253 85.752 22.3733 85.812 22.4933 85.932C22.6213 86.052 22.6853 86.208 22.6853 86.4C22.6853 86.584 22.6213 86.74 22.4933 86.868C22.3733 86.996 22.2253 87.06 22.0493 87.06ZM27.8769 87V78.6H28.6089L32.4489 85.152H32.0649L35.8689 78.6H36.6009V87H35.7489V79.932H35.9529L32.4489 85.932H32.0289L28.5009 79.932H28.7289V87H27.8769ZM43.1396 87V85.608L43.1036 85.38V83.052C43.1036 82.516 42.9516 82.104 42.6476 81.816C42.3516 81.528 41.9076 81.384 41.3156 81.384C40.9076 81.384 40.5196 81.452 40.1516 81.588C39.7836 81.724 39.4716 81.904 39.2156 82.128L38.8316 81.492C39.1516 81.22 39.5356 81.012 39.9836 80.868C40.4316 80.716 40.9036 80.64 41.3996 80.64C42.2156 80.64 42.8436 80.844 43.2836 81.252C43.7316 81.652 43.9556 82.264 43.9556 83.088V87H43.1396ZM40.9676 87.06C40.4956 87.06 40.0836 86.984 39.7316 86.832C39.3876 86.672 39.1236 86.456 38.9396 86.184C38.7556 85.904 38.6636 85.584 38.6636 85.224C38.6636 84.896 38.7396 84.6 38.8916 84.336C39.0516 84.064 39.3076 83.848 39.6596 83.688C40.0196 83.52 40.4996 83.436 41.0996 83.436H43.2716V84.072H41.1236C40.5156 84.072 40.0916 84.18 39.8516 84.396C39.6196 84.612 39.5036 84.88 39.5036 85.2C39.5036 85.56 39.6436 85.848 39.9236 86.064C40.2036 86.28 40.5956 86.388 41.0996 86.388C41.5796 86.388 41.9916 86.28 42.3356 86.064C42.6876 85.84 42.9436 85.52 43.1036 85.104L43.2956 85.692C43.1356 86.108 42.8556 86.44 42.4556 86.688C42.0636 86.936 41.5676 87.06 40.9676 87.06ZM49.4757 87.06C48.9317 87.06 48.4397 86.936 47.9997 86.688C47.5597 86.432 47.2077 86.068 46.9437 85.596C46.6877 85.116 46.5597 84.532 46.5597 83.844C46.5597 83.156 46.6877 82.576 46.9437 82.104C47.1997 81.624 47.5477 81.26 47.9877 81.012C48.4277 80.764 48.9237 80.64 49.4757 80.64C50.0757 80.64 50.6117 80.776 51.0837 81.048C51.5637 81.312 51.9397 81.688 52.2117 82.176C52.4837 82.656 52.6197 83.212 52.6197 83.844C52.6197 84.484 52.4837 85.044 52.2117 85.524C51.9397 86.004 51.5637 86.38 51.0837 86.652C50.6117 86.924 50.0757 87.06 49.4757 87.06ZM46.2237 89.328V80.7H47.0397V82.596L46.9557 83.856L47.0757 85.128V89.328H46.2237ZM49.4157 86.304C49.8637 86.304 50.2637 86.204 50.6157 86.004C50.9677 85.796 51.2477 85.508 51.4557 85.14C51.6637 84.764 51.7677 84.332 51.7677 83.844C51.7677 83.356 51.6637 82.928 51.4557 82.56C51.2477 82.192 50.9677 81.904 50.6157 81.696C50.2637 81.488 49.8637 81.384 49.4157 81.384C48.9677 81.384 48.5637 81.488 48.2037 81.696C47.8517 81.904 47.5717 82.192 47.3637 82.56C47.1637 82.928 47.0637 83.356 47.0637 83.844C47.0637 84.332 47.1637 84.764 47.3637 85.14C47.5717 85.508 47.8517 85.796 48.2037 86.004C48.5637 86.204 48.9677 86.304 49.4157 86.304ZM58.5903 86.256L58.3983 86.484V80.7H59.2503V86.484L59.0223 86.256H62.5383L62.3103 86.484V80.7H63.1623V87H54.4503V80.7H55.3023V86.484L55.0863 86.256H58.5903ZM69.4951 87V85.608L69.4591 85.38V83.052C69.4591 82.516 69.3071 82.104 69.0031 81.816C68.7071 81.528 68.2631 81.384 67.6711 81.384C67.2631 81.384 66.8751 81.452 66.5071 81.588C66.1391 81.724 65.8271 81.904 65.5711 82.128L65.1871 81.492C65.5071 81.22 65.8911 81.012 66.3391 80.868C66.7871 80.716 67.2591 80.64 67.7551 80.64C68.5711 80.64 69.1991 80.844 69.6391 81.252C70.0871 81.652 70.3111 82.264 70.3111 83.088V87H69.4951ZM67.3231 87.06C66.8511 87.06 66.4391 86.984 66.0871 86.832C65.7431 86.672 65.4791 86.456 65.2951 86.184C65.1111 85.904 65.0191 85.584 65.0191 85.224C65.0191 84.896 65.0951 84.6 65.2471 84.336C65.4071 84.064 65.6631 83.848 66.0151 83.688C66.3751 83.52 66.8551 83.436 67.4551 83.436H69.6271V84.072H67.4791C66.8711 84.072 66.4471 84.18 66.2071 84.396C65.9751 84.612 65.8591 84.88 65.8591 85.2C65.8591 85.56 65.9991 85.848 66.2791 86.064C66.5591 86.28 66.9511 86.388 67.4551 86.388C67.9351 86.388 68.3471 86.28 68.6911 86.064C69.0431 85.84 69.2991 85.52 69.4591 85.104L69.6511 85.692C69.4911 86.108 69.2111 86.44 68.8111 86.688C68.4191 86.936 67.9231 87.06 67.3231 87.06ZM71.4272 86.988L71.4872 86.256C71.5432 86.264 71.5952 86.276 71.6432 86.292C71.6992 86.3 71.7472 86.304 71.7872 86.304C72.0432 86.304 72.2472 86.208 72.3992 86.016C72.5592 85.824 72.6792 85.568 72.7592 85.248C72.8392 84.928 72.8952 84.568 72.9272 84.168C72.9592 83.76 72.9872 83.352 73.0112 82.944L73.1192 80.7H77.7392V87H76.8872V81.192L77.1032 81.444H73.6712L73.8752 81.18L73.7792 83.004C73.7552 83.548 73.7112 84.068 73.6472 84.564C73.5912 85.06 73.4992 85.496 73.3712 85.872C73.2512 86.248 73.0832 86.544 72.8672 86.76C72.6512 86.968 72.3752 87.072 72.0392 87.072C71.9432 87.072 71.8432 87.064 71.7392 87.048C71.6432 87.032 71.5392 87.012 71.4272 86.988ZM84.0732 87V85.608L84.0372 85.38V83.052C84.0372 82.516 83.8852 82.104 83.5812 81.816C83.2852 81.528 82.8412 81.384 82.2492 81.384C81.8412 81.384 81.4532 81.452 81.0852 81.588C80.7172 81.724 80.4052 81.904 80.1492 82.128L79.7652 81.492C80.0852 81.22 80.4692 81.012 80.9172 80.868C81.3652 80.716 81.8372 80.64 82.3332 80.64C83.1492 80.64 83.7772 80.844 84.2172 81.252C84.6652 81.652 84.8892 82.264 84.8892 83.088V87H84.0732ZM81.9012 87.06C81.4292 87.06 81.0172 86.984 80.6652 86.832C80.3212 86.672 80.0572 86.456 79.8732 86.184C79.6892 85.904 79.5972 85.584 79.5972 85.224C79.5972 84.896 79.6732 84.6 79.8252 84.336C79.9852 84.064 80.2412 83.848 80.5932 83.688C80.9532 83.52 81.4332 83.436 82.0332 83.436H84.2052V84.072H82.0572C81.4492 84.072 81.0252 84.18 80.7852 84.396C80.5532 84.612 80.4372 84.88 80.4372 85.2C80.4372 85.56 80.5772 85.848 80.8572 86.064C81.1372 86.28 81.5292 86.388 82.0332 86.388C82.5132 86.388 82.9252 86.28 83.2692 86.064C83.6212 85.84 83.8772 85.52 84.0372 85.104L84.2292 85.692C84.0692 86.108 83.7892 86.44 83.3892 86.688C82.9972 86.936 82.5012 87.06 81.9012 87.06ZM90.5019 87V78.6H97.5699V87H96.6939V79.128L96.9219 79.368H91.1499L91.3779 79.128V87H90.5019ZM102.792 87.06C102.184 87.06 101.636 86.924 101.148 86.652C100.668 86.372 100.288 85.992 100.008 85.512C99.7283 85.024 99.5883 84.468 99.5883 83.844C99.5883 83.212 99.7283 82.656 100.008 82.176C100.288 81.696 100.668 81.32 101.148 81.048C101.628 80.776 102.176 80.64 102.792 80.64C103.416 80.64 103.968 80.776 104.448 81.048C104.936 81.32 105.316 81.696 105.588 82.176C105.868 82.656 106.008 83.212 106.008 83.844C106.008 84.468 105.868 85.024 105.588 85.512C105.316 85.992 104.936 86.372 104.448 86.652C103.96 86.924 103.408 87.06 102.792 87.06ZM102.792 86.304C103.248 86.304 103.652 86.204 104.004 86.004C104.356 85.796 104.632 85.508 104.832 85.14C105.04 84.764 105.144 84.332 105.144 83.844C105.144 83.348 105.04 82.916 104.832 82.548C104.632 82.18 104.356 81.896 104.004 81.696C103.652 81.488 103.252 81.384 102.804 81.384C102.356 81.384 101.956 81.488 101.604 81.696C101.252 81.896 100.972 82.18 100.764 82.548C100.556 82.916 100.452 83.348 100.452 83.844C100.452 84.332 100.556 84.764 100.764 85.14C100.972 85.508 101.252 85.796 101.604 86.004C101.956 86.204 102.352 86.304 102.792 86.304ZM112.449 87L109.857 83.88L110.565 83.46L113.457 87H112.449ZM107.829 87V80.7H108.681V87H107.829ZM108.417 84.192V83.46H110.445V84.192H108.417ZM110.637 83.94L109.845 83.82L112.353 80.7H113.277L110.637 83.94ZM118.054 87.06C117.51 87.06 117.018 86.936 116.578 86.688C116.138 86.432 115.786 86.068 115.522 85.596C115.266 85.116 115.138 84.532 115.138 83.844C115.138 83.156 115.266 82.576 115.522 82.104C115.778 81.624 116.126 81.26 116.566 81.012C117.006 80.764 117.502 80.64 118.054 80.64C118.654 80.64 119.19 80.776 119.662 81.048C120.142 81.312 120.518 81.688 120.79 82.176C121.062 82.656 121.198 83.212 121.198 83.844C121.198 84.484 121.062 85.044 120.79 85.524C120.518 86.004 120.142 86.38 119.662 86.652C119.19 86.924 118.654 87.06 118.054 87.06ZM114.802 89.328V80.7H115.618V82.596L115.534 83.856L115.654 85.128V89.328H114.802ZM117.994 86.304C118.442 86.304 118.842 86.204 119.194 86.004C119.546 85.796 119.826 85.508 120.034 85.14C120.242 84.764 120.346 84.332 120.346 83.844C120.346 83.356 120.242 82.928 120.034 82.56C119.826 82.192 119.546 81.904 119.194 81.696C118.842 81.488 118.442 81.384 117.994 81.384C117.546 81.384 117.142 81.488 116.782 81.696C116.43 81.904 116.15 82.192 115.942 82.56C115.742 82.928 115.642 83.356 115.642 83.844C115.642 84.332 115.742 84.764 115.942 85.14C116.15 85.508 116.43 85.796 116.782 86.004C117.142 86.204 117.546 86.304 117.994 86.304ZM129.172 87V80.7H130.024V87H129.172ZM125.68 82.92C126.472 82.928 127.076 83.104 127.492 83.448C127.908 83.792 128.116 84.288 128.116 84.936C128.116 85.608 127.892 86.124 127.444 86.484C126.996 86.844 126.356 87.02 125.524 87.012L123.028 87V80.7H123.88V82.896L125.68 82.92ZM125.464 86.364C126.056 86.372 126.5 86.256 126.796 86.016C127.1 85.768 127.252 85.408 127.252 84.936C127.252 84.464 127.104 84.12 126.808 83.904C126.512 83.68 126.064 83.564 125.464 83.556L123.88 83.532V86.34L125.464 86.364ZM136.59 86.256L136.398 86.484V80.7H137.25V86.484L137.022 86.256H140.538L140.31 86.484V80.7H141.162V87H132.45V80.7H133.302V86.484L133.086 86.256H136.59ZM148.203 87L145.611 83.88L146.319 83.46L149.211 87H148.203ZM143.583 87V80.7H144.435V87H143.583ZM144.171 84.192V83.46H146.199V84.192H144.171ZM146.391 83.94L145.599 83.82L148.107 80.7H149.031L146.391 83.94ZM150.556 87V80.7H151.408V85.704L155.62 80.7H156.376V87H155.524V81.984L151.324 87H150.556ZM158.817 87V80.7H159.669V83.484H163.641V80.7H164.493V87H163.641V84.216H159.669V87H158.817ZM170.827 87V85.608L170.791 85.38V83.052C170.791 82.516 170.639 82.104 170.335 81.816C170.039 81.528 169.595 81.384 169.003 81.384C168.595 81.384 168.207 81.452 167.839 81.588C167.471 81.724 167.159 81.904 166.903 82.128L166.519 81.492C166.839 81.22 167.223 81.012 167.671 80.868C168.119 80.716 168.591 80.64 169.087 80.64C169.903 80.64 170.531 80.844 170.971 81.252C171.419 81.652 171.643 82.264 171.643 83.088V87H170.827ZM168.655 87.06C168.183 87.06 167.771 86.984 167.419 86.832C167.075 86.672 166.811 86.456 166.627 86.184C166.443 85.904 166.351 85.584 166.351 85.224C166.351 84.896 166.427 84.6 166.579 84.336C166.739 84.064 166.995 83.848 167.347 83.688C167.707 83.52 168.187 83.436 168.787 83.436H170.959V84.072H168.811C168.203 84.072 167.779 84.18 167.539 84.396C167.307 84.612 167.191 84.88 167.191 85.2C167.191 85.56 167.331 85.848 167.611 86.064C167.891 86.28 168.283 86.388 168.787 86.388C169.267 86.388 169.679 86.28 170.023 86.064C170.375 85.84 170.631 85.52 170.791 85.104L170.983 85.692C170.823 86.108 170.543 86.44 170.143 86.688C169.751 86.936 169.255 87.06 168.655 87.06Z" fill="#393335"/>
<path d="M88.7679 61C89.5377 59.6667 91.4623 59.6667 92.2321 61L97.8612 70.75C98.631 72.0833 97.6688 73.75 96.1292 73.75H84.8708C83.3312 73.75 82.369 72.0833 83.1388 70.75L88.7679 61Z" fill="white"/>
</svg>
