<svg width="112" height="102" viewBox="0 0 112 102" fill="none" xmlns="http://www.w3.org/2000/svg">
<circle cx="57" cy="25" r="25" fill="white"/>
<path fill-rule="evenodd" clip-rule="evenodd" d="M63.5517 14L57.5 25.7021L51.4483 14L44 34.5957H50.0517L52.8448 26.6383L57.5 36L62.1552 26.6383L64.9483 34.5957H71L63.5517 14Z" fill="#9C163A"/>
<rect y="74" width="112" height="28" rx="5" fill="white"/>
<path d="M9.852 92.06C9.228 92.06 8.668 91.924 8.172 91.652C7.684 91.372 7.3 90.992 7.02 90.512C6.74 90.024 6.6 89.468 6.6 88.844C6.6 88.212 6.74 87.656 7.02 87.176C7.3 86.696 7.684 86.32 8.172 86.048C8.668 85.776 9.228 85.64 9.852 85.64C10.388 85.64 10.872 85.744 11.304 85.952C11.736 86.16 12.076 86.472 12.324 86.888L11.688 87.32C11.472 87 11.204 86.764 10.884 86.612C10.564 86.46 10.216 86.384 9.84 86.384C9.392 86.384 8.988 86.488 8.628 86.696C8.268 86.896 7.984 87.18 7.776 87.548C7.568 87.916 7.464 88.348 7.464 88.844C7.464 89.34 7.568 89.772 7.776 90.14C7.984 90.508 8.268 90.796 8.628 91.004C8.988 91.204 9.392 91.304 9.84 91.304C10.216 91.304 10.564 91.228 10.884 91.076C11.204 90.924 11.472 90.692 11.688 90.38L12.324 90.812C12.076 91.22 11.736 91.532 11.304 91.748C10.872 91.956 10.388 92.06 9.852 92.06ZM15.0565 92V86.216L15.2725 86.444H12.6685V85.7H18.2965V86.444H15.6925L15.9085 86.216V92H15.0565ZM19.0493 92.06C18.8733 92.06 18.7213 91.996 18.5933 91.868C18.4733 91.74 18.4133 91.584 18.4133 91.4C18.4133 91.208 18.4733 91.052 18.5933 90.932C18.7213 90.812 18.8733 90.752 19.0493 90.752C19.2253 90.752 19.3733 90.812 19.4933 90.932C19.6213 91.052 19.6853 91.208 19.6853 91.4C19.6853 91.584 19.6213 91.74 19.4933 91.868C19.3733 91.996 19.2253 92.06 19.0493 92.06ZM28.5609 92.072C27.9289 92.072 27.3409 91.968 26.7969 91.76C26.2609 91.544 25.7929 91.244 25.3929 90.86C25.0009 90.468 24.6929 90.016 24.4689 89.504C24.2529 88.984 24.1449 88.416 24.1449 87.8C24.1449 87.184 24.2529 86.62 24.4689 86.108C24.6929 85.588 25.0009 85.136 25.3929 84.752C25.7929 84.36 26.2609 84.06 26.7969 83.852C27.3329 83.636 27.9209 83.528 28.5609 83.528C29.1929 83.528 29.7769 83.636 30.3129 83.852C30.8489 84.06 31.3129 84.356 31.7049 84.74C32.1049 85.124 32.4129 85.576 32.6289 86.096C32.8529 86.616 32.9649 87.184 32.9649 87.8C32.9649 88.416 32.8529 88.984 32.6289 89.504C32.4129 90.024 32.1049 90.476 31.7049 90.86C31.3129 91.244 30.8489 91.544 30.3129 91.76C29.7769 91.968 29.1929 92.072 28.5609 92.072ZM28.5609 91.28C29.0649 91.28 29.5289 91.196 29.9529 91.028C30.3849 90.852 30.7569 90.608 31.0689 90.296C31.3889 89.976 31.6369 89.608 31.8129 89.192C31.9889 88.768 32.0769 88.304 32.0769 87.8C32.0769 87.296 31.9889 86.836 31.8129 86.42C31.6369 85.996 31.3889 85.628 31.0689 85.316C30.7569 84.996 30.3849 84.752 29.9529 84.584C29.5289 84.408 29.0649 84.32 28.5609 84.32C28.0569 84.32 27.5889 84.408 27.1569 84.584C26.7249 84.752 26.3489 84.996 26.0289 85.316C25.7169 85.628 25.4689 85.996 25.2849 86.42C25.1089 86.836 25.0209 87.296 25.0209 87.8C25.0209 88.296 25.1089 88.756 25.2849 89.18C25.4689 89.604 25.7169 89.976 26.0289 90.296C26.3489 90.608 26.7249 90.852 27.1569 91.028C27.5889 91.196 28.0569 91.28 28.5609 91.28ZM39.5 92L36.908 88.88L37.616 88.46L40.508 92H39.5ZM34.88 92V85.7H35.732V92H34.88ZM35.468 89.192V88.46H37.496V89.192H35.468ZM37.688 88.94L36.896 88.82L39.404 85.7H40.328L37.688 88.94ZM42.9237 92V86.216L43.1397 86.444H40.5357V85.7H46.1637V86.444H43.5597L43.7757 86.216V92H42.9237ZM51.3347 92V89.732L51.4907 89.912H49.3547C48.5467 89.912 47.9147 89.736 47.4587 89.384C47.0027 89.032 46.7747 88.52 46.7747 87.848C46.7747 87.128 47.0187 86.592 47.5067 86.24C47.9947 85.88 48.6467 85.7 49.4627 85.7H52.1147V92H51.3347ZM46.7267 92L48.4547 89.576H49.3427L47.6507 92H46.7267ZM51.3347 89.48V86.192L51.4907 86.444H49.4867C48.9027 86.444 48.4467 86.556 48.1187 86.78C47.7987 87.004 47.6387 87.368 47.6387 87.872C47.6387 88.808 48.2347 89.276 49.4267 89.276H51.4907L51.3347 89.48ZM57.376 92.072C56.864 92.072 56.408 91.988 56.008 91.82C55.616 91.652 55.28 91.396 55 91.052C54.72 90.708 54.508 90.284 54.364 89.78C54.22 89.268 54.148 88.676 54.148 88.004C54.148 87.404 54.204 86.88 54.316 86.432C54.428 85.976 54.584 85.584 54.784 85.256C54.984 84.928 55.216 84.652 55.48 84.428C55.752 84.196 56.044 84.012 56.356 83.876C56.676 83.732 57.004 83.624 57.34 83.552L60.172 82.892L60.316 83.684L57.652 84.284C57.484 84.324 57.28 84.38 57.04 84.452C56.808 84.524 56.568 84.632 56.32 84.776C56.08 84.92 55.856 85.12 55.648 85.376C55.44 85.632 55.272 85.964 55.144 86.372C55.024 86.772 54.964 87.272 54.964 87.872C54.964 88 54.968 88.104 54.976 88.184C54.984 88.256 54.992 88.336 55 88.424C55.016 88.504 55.028 88.624 55.036 88.784L54.664 88.472C54.752 87.984 54.932 87.56 55.204 87.2C55.476 86.832 55.816 86.548 56.224 86.348C56.64 86.14 57.1 86.036 57.604 86.036C58.188 86.036 58.708 86.164 59.164 86.42C59.62 86.668 59.976 87.016 60.232 87.464C60.496 87.912 60.628 88.432 60.628 89.024C60.628 89.608 60.492 90.132 60.22 90.596C59.956 91.06 59.58 91.424 59.092 91.688C58.604 91.944 58.032 92.072 57.376 92.072ZM57.472 91.364C57.92 91.364 58.316 91.264 58.66 91.064C59.004 90.856 59.272 90.576 59.464 90.224C59.664 89.872 59.764 89.476 59.764 89.036C59.764 88.604 59.664 88.22 59.464 87.884C59.272 87.548 59.004 87.284 58.66 87.092C58.316 86.892 57.916 86.792 57.46 86.792C57.012 86.792 56.616 86.888 56.272 87.08C55.928 87.264 55.656 87.524 55.456 87.86C55.264 88.196 55.168 88.584 55.168 89.024C55.168 89.464 55.264 89.86 55.456 90.212C55.656 90.564 55.928 90.844 56.272 91.052C56.624 91.26 57.024 91.364 57.472 91.364ZM65.7062 92.06C65.1622 92.06 64.6702 91.936 64.2302 91.688C63.7902 91.432 63.4382 91.068 63.1742 90.596C62.9182 90.116 62.7902 89.532 62.7902 88.844C62.7902 88.156 62.9182 87.576 63.1742 87.104C63.4302 86.624 63.7782 86.26 64.2182 86.012C64.6582 85.764 65.1542 85.64 65.7062 85.64C66.3062 85.64 66.8422 85.776 67.3142 86.048C67.7942 86.312 68.1702 86.688 68.4422 87.176C68.7142 87.656 68.8502 88.212 68.8502 88.844C68.8502 89.484 68.7142 90.044 68.4422 90.524C68.1702 91.004 67.7942 91.38 67.3142 91.652C66.8422 91.924 66.3062 92.06 65.7062 92.06ZM62.4542 94.328V85.7H63.2702V87.596L63.1862 88.856L63.3062 90.128V94.328H62.4542ZM65.6462 91.304C66.0942 91.304 66.4942 91.204 66.8462 91.004C67.1982 90.796 67.4782 90.508 67.6862 90.14C67.8942 89.764 67.9982 89.332 67.9982 88.844C67.9982 88.356 67.8942 87.928 67.6862 87.56C67.4782 87.192 67.1982 86.904 66.8462 86.696C66.4942 86.488 66.0942 86.384 65.6462 86.384C65.1982 86.384 64.7942 86.488 64.4342 86.696C64.0822 86.904 63.8022 87.192 63.5942 87.56C63.3942 87.928 63.2942 88.356 63.2942 88.844C63.2942 89.332 63.3942 89.764 63.5942 90.14C63.8022 90.508 64.0822 90.796 64.4342 91.004C64.7942 91.204 65.1982 91.304 65.6462 91.304ZM73.3928 87.92C74.1848 87.928 74.7848 88.104 75.1928 88.448C75.6088 88.792 75.8168 89.288 75.8168 89.936C75.8168 90.608 75.5928 91.124 75.1448 91.484C74.7048 91.844 74.0648 92.02 73.2248 92.012L70.6808 92V85.7H71.5328V87.896L73.3928 87.92ZM73.1768 91.364C73.7608 91.372 74.2008 91.256 74.4968 91.016C74.8008 90.768 74.9528 90.408 74.9528 89.936C74.9528 89.464 74.8048 89.12 74.5088 88.904C74.2128 88.68 73.7688 88.564 73.1768 88.556L71.5328 88.532V91.34L73.1768 91.364ZM80.0825 92.06C79.4585 92.06 78.8985 91.924 78.4025 91.652C77.9145 91.372 77.5305 90.992 77.2505 90.512C76.9705 90.024 76.8305 89.468 76.8305 88.844C76.8305 88.212 76.9705 87.656 77.2505 87.176C77.5305 86.696 77.9145 86.32 78.4025 86.048C78.8985 85.776 79.4585 85.64 80.0825 85.64C80.6185 85.64 81.1025 85.744 81.5345 85.952C81.9665 86.16 82.3065 86.472 82.5545 86.888L81.9185 87.32C81.7025 87 81.4345 86.764 81.1145 86.612C80.7945 86.46 80.4465 86.384 80.0705 86.384C79.6225 86.384 79.2185 86.488 78.8585 86.696C78.4985 86.896 78.2145 87.18 78.0065 87.548C77.7985 87.916 77.6945 88.348 77.6945 88.844C77.6945 89.34 77.7985 89.772 78.0065 90.14C78.2145 90.508 78.4985 90.796 78.8585 91.004C79.2185 91.204 79.6225 91.304 80.0705 91.304C80.4465 91.304 80.7945 91.228 81.1145 91.076C81.4345 90.924 81.7025 90.692 81.9185 90.38L82.5545 90.812C82.3065 91.22 81.9665 91.532 81.5345 91.748C81.1025 91.956 80.6185 92.06 80.0825 92.06ZM88.8242 92L86.2322 88.88L86.9402 88.46L89.8322 92H88.8242ZM84.2042 92V85.7H85.0562V92H84.2042ZM84.7922 89.192V88.46H86.8202V89.192H84.7922ZM87.0122 88.94L86.2202 88.82L88.7282 85.7H89.6522L87.0122 88.94ZM94.9717 92V90.608L94.9357 90.38V88.052C94.9357 87.516 94.7837 87.104 94.4797 86.816C94.1837 86.528 93.7397 86.384 93.1477 86.384C92.7397 86.384 92.3517 86.452 91.9837 86.588C91.6157 86.724 91.3037 86.904 91.0477 87.128L90.6637 86.492C90.9837 86.22 91.3677 86.012 91.8157 85.868C92.2637 85.716 92.7357 85.64 93.2317 85.64C94.0477 85.64 94.6757 85.844 95.1157 86.252C95.5637 86.652 95.7877 87.264 95.7877 88.088V92H94.9717ZM92.7997 92.06C92.3277 92.06 91.9157 91.984 91.5637 91.832C91.2197 91.672 90.9557 91.456 90.7717 91.184C90.5877 90.904 90.4957 90.584 90.4957 90.224C90.4957 89.896 90.5717 89.6 90.7237 89.336C90.8837 89.064 91.1397 88.848 91.4917 88.688C91.8517 88.52 92.3317 88.436 92.9317 88.436H95.1037V89.072H92.9557C92.3477 89.072 91.9237 89.18 91.6837 89.396C91.4517 89.612 91.3357 89.88 91.3357 90.2C91.3357 90.56 91.4757 90.848 91.7557 91.064C92.0357 91.28 92.4277 91.388 92.9317 91.388C93.4117 91.388 93.8237 91.28 94.1677 91.064C94.5197 90.84 94.7757 90.52 94.9357 90.104L95.1277 90.692C94.9677 91.108 94.6877 91.44 94.2877 91.688C93.8957 91.936 93.3997 92.06 92.7997 92.06ZM102.124 92V89.732L102.28 89.912H100.144C99.3358 89.912 98.7038 89.736 98.2478 89.384C97.7918 89.032 97.5638 88.52 97.5638 87.848C97.5638 87.128 97.8078 86.592 98.2958 86.24C98.7838 85.88 99.4358 85.7 100.252 85.7H102.904V92H102.124ZM97.5158 92L99.2438 89.576H100.132L98.4398 92H97.5158ZM102.124 89.48V86.192L102.28 86.444H100.276C99.6918 86.444 99.2358 86.556 98.9078 86.78C98.5878 87.004 98.4277 87.368 98.4277 87.872C98.4277 88.808 99.0238 89.276 100.216 89.276H102.28L102.124 89.48Z" fill="#393335"/>
<path d="M54.7679 64C55.5377 62.6667 57.4623 62.6667 58.2321 64L63.8612 73.75C64.631 75.0833 63.6688 76.75 62.1292 76.75H50.8708C49.3312 76.75 48.369 75.0833 49.1388 73.75L54.7679 64Z" fill="white"/>
</svg>
