<svg width="145" height="94" viewBox="0 0 145 94" fill="none" xmlns="http://www.w3.org/2000/svg">
<circle cx="73" cy="25" r="25" fill="white"/>
<path fill-rule="evenodd" clip-rule="evenodd" d="M79.5517 14L73.5 25.7021L67.4483 14L60 34.5957H66.0517L68.8448 26.6383L73.5 36L78.1552 26.6383L80.9483 34.5957H87L79.5517 14Z" fill="#9C163A"/>
<rect y="70" width="145" height="24" rx="5" fill="white"/>
<path d="M12.852 86.06C12.228 86.06 11.668 85.924 11.172 85.652C10.684 85.372 10.3 84.992 10.02 84.512C9.74 84.024 9.6 83.468 9.6 82.844C9.6 82.212 9.74 81.656 10.02 81.176C10.3 80.696 10.684 80.32 11.172 80.048C11.668 79.776 12.228 79.64 12.852 79.64C13.388 79.64 13.872 79.744 14.304 79.952C14.736 80.16 15.076 80.472 15.324 80.888L14.688 81.32C14.472 81 14.204 80.764 13.884 80.612C13.564 80.46 13.216 80.384 12.84 80.384C12.392 80.384 11.988 80.488 11.628 80.696C11.268 80.896 10.984 81.18 10.776 81.548C10.568 81.916 10.464 82.348 10.464 82.844C10.464 83.34 10.568 83.772 10.776 84.14C10.984 84.508 11.268 84.796 11.628 85.004C11.988 85.204 12.392 85.304 12.84 85.304C13.216 85.304 13.564 85.228 13.884 85.076C14.204 84.924 14.472 84.692 14.688 84.38L15.324 84.812C15.076 85.22 14.736 85.532 14.304 85.748C13.872 85.956 13.388 86.06 12.852 86.06ZM18.0565 86V80.216L18.2725 80.444H15.6685V79.7H21.2965V80.444H18.6925L18.9085 80.216V86H18.0565ZM22.0493 86.06C21.8733 86.06 21.7213 85.996 21.5933 85.868C21.4733 85.74 21.4133 85.584 21.4133 85.4C21.4133 85.208 21.4733 85.052 21.5933 84.932C21.7213 84.812 21.8733 84.752 22.0493 84.752C22.2253 84.752 22.3733 84.812 22.4933 84.932C22.6213 85.052 22.6853 85.208 22.6853 85.4C22.6853 85.584 22.6213 85.74 22.4933 85.868C22.3733 85.996 22.2253 86.06 22.0493 86.06ZM27.8769 86V77.6H34.9449V86H34.0689V78.128L34.2969 78.368H28.5249L28.7529 78.128V86H27.8769ZM36.4233 85.988L36.4833 85.256C36.5393 85.264 36.5913 85.276 36.6393 85.292C36.6953 85.3 36.7433 85.304 36.7833 85.304C37.0393 85.304 37.2433 85.208 37.3953 85.016C37.5553 84.824 37.6753 84.568 37.7553 84.248C37.8353 83.928 37.8913 83.568 37.9233 83.168C37.9553 82.76 37.9833 82.352 38.0073 81.944L38.1153 79.7H42.7353V86H41.8833V80.192L42.0993 80.444H38.6673L38.8713 80.18L38.7753 82.004C38.7513 82.548 38.7073 83.068 38.6433 83.564C38.5873 84.06 38.4953 84.496 38.3673 84.872C38.2473 85.248 38.0793 85.544 37.8633 85.76C37.6473 85.968 37.3713 86.072 37.0353 86.072C36.9393 86.072 36.8393 86.064 36.7353 86.048C36.6393 86.032 36.5353 86.012 36.4233 85.988ZM47.7493 86.06C47.1413 86.06 46.5933 85.924 46.1053 85.652C45.6253 85.372 45.2453 84.992 44.9653 84.512C44.6853 84.024 44.5453 83.468 44.5453 82.844C44.5453 82.212 44.6853 81.656 44.9653 81.176C45.2453 80.696 45.6253 80.32 46.1053 80.048C46.5853 79.776 47.1333 79.64 47.7493 79.64C48.3733 79.64 48.9253 79.776 49.4053 80.048C49.8933 80.32 50.2733 80.696 50.5453 81.176C50.8253 81.656 50.9653 82.212 50.9653 82.844C50.9653 83.468 50.8253 84.024 50.5453 84.512C50.2733 84.992 49.8933 85.372 49.4053 85.652C48.9173 85.924 48.3653 86.06 47.7493 86.06ZM47.7493 85.304C48.2053 85.304 48.6093 85.204 48.9613 85.004C49.3133 84.796 49.5893 84.508 49.7893 84.14C49.9973 83.764 50.1013 83.332 50.1013 82.844C50.1013 82.348 49.9973 81.916 49.7893 81.548C49.5893 81.18 49.3133 80.896 48.9613 80.696C48.6093 80.488 48.2093 80.384 47.7613 80.384C47.3133 80.384 46.9133 80.488 46.5613 80.696C46.2093 80.896 45.9293 81.18 45.7213 81.548C45.5133 81.916 45.4093 82.348 45.4093 82.844C45.4093 83.332 45.5133 83.764 45.7213 84.14C45.9293 84.508 46.2093 84.796 46.5613 85.004C46.9133 85.204 47.3093 85.304 47.7493 85.304ZM56.9262 85.256L56.7342 85.484V79.7H57.5862V85.484L57.3582 85.256H60.8742L60.6462 85.484V79.7H61.4982V86H52.7862V79.7H53.6382V85.484L53.4222 85.256H56.9262ZM61.6662 87.38V85.772L61.8822 86H60.5982V85.256H62.4702V87.38H61.6662ZM67.831 86V84.608L67.795 84.38V82.052C67.795 81.516 67.643 81.104 67.339 80.816C67.043 80.528 66.599 80.384 66.007 80.384C65.599 80.384 65.211 80.452 64.843 80.588C64.475 80.724 64.163 80.904 63.907 81.128L63.523 80.492C63.843 80.22 64.227 80.012 64.675 79.868C65.123 79.716 65.595 79.64 66.091 79.64C66.907 79.64 67.535 79.844 67.975 80.252C68.423 80.652 68.647 81.264 68.647 82.088V86H67.831ZM65.659 86.06C65.187 86.06 64.775 85.984 64.423 85.832C64.079 85.672 63.815 85.456 63.631 85.184C63.447 84.904 63.355 84.584 63.355 84.224C63.355 83.896 63.431 83.6 63.583 83.336C63.743 83.064 63.999 82.848 64.351 82.688C64.711 82.52 65.191 82.436 65.791 82.436H67.963V83.072H65.815C65.207 83.072 64.783 83.18 64.543 83.396C64.311 83.612 64.195 83.88 64.195 84.2C64.195 84.56 64.335 84.848 64.615 85.064C64.895 85.28 65.287 85.388 65.791 85.388C66.271 85.388 66.683 85.28 67.027 85.064C67.379 84.84 67.635 84.52 67.795 84.104L67.987 84.692C67.827 85.108 67.547 85.44 67.147 85.688C66.755 85.936 66.259 86.06 65.659 86.06ZM75.2351 85.592V80.444H72.1991L72.1271 81.848C72.1111 82.272 72.0831 82.688 72.0431 83.096C72.0111 83.504 71.9511 83.88 71.8631 84.224C71.7831 84.56 71.6671 84.836 71.5151 85.052C71.3631 85.26 71.1671 85.38 70.9271 85.412L70.0751 85.256C70.3231 85.264 70.5271 85.176 70.6871 84.992C70.8471 84.8 70.9711 84.54 71.0591 84.212C71.1471 83.884 71.2111 83.512 71.2511 83.096C71.2911 82.672 71.3231 82.24 71.3471 81.8L71.4311 79.7H76.0871V85.592H75.2351ZM69.8111 87.524V85.256H77.0711V87.524H76.2671V86H70.6151V87.524H69.8111ZM81.4435 81.92C82.2355 81.928 82.8355 82.104 83.2435 82.448C83.6595 82.792 83.8675 83.288 83.8675 83.936C83.8675 84.608 83.6435 85.124 83.1955 85.484C82.7555 85.844 82.1155 86.02 81.2755 86.012L78.7315 86V79.7H79.5835V81.896L81.4435 81.92ZM81.2275 85.364C81.8115 85.372 82.2515 85.256 82.5475 85.016C82.8515 84.768 83.0035 84.408 83.0035 83.936C83.0035 83.464 82.8555 83.12 82.5595 82.904C82.2635 82.68 81.8195 82.564 81.2275 82.556L79.5835 82.532V85.34L81.2275 85.364ZM88.2259 86.072C88.1139 86.072 88.0059 86.064 87.9019 86.048C87.7979 86.04 87.6819 86.02 87.5539 85.988L87.6259 85.196C87.7619 85.228 87.8939 85.244 88.0219 85.244C88.3819 85.244 88.6699 85.104 88.8859 84.824C89.1099 84.536 89.2779 84.096 89.3899 83.504C89.5019 82.904 89.5739 82.136 89.6059 81.2L89.7259 77.6H95.4259V86H94.5499V78.128L94.7779 78.368H90.2899L90.5059 78.116L90.3979 81.176C90.3659 82.016 90.3059 82.744 90.2179 83.36C90.1299 83.968 90.0019 84.476 89.8339 84.884C89.6659 85.284 89.4499 85.584 89.1859 85.784C88.9219 85.976 88.6019 86.072 88.2259 86.072ZM100.756 86.06C100.1 86.06 99.5238 85.924 99.0278 85.652C98.5318 85.372 98.1438 84.992 97.8638 84.512C97.5838 84.024 97.4438 83.468 97.4438 82.844C97.4438 82.22 97.5758 81.668 97.8398 81.188C98.1118 80.708 98.4798 80.332 98.9438 80.06C99.4158 79.78 99.9438 79.64 100.528 79.64C101.12 79.64 101.644 79.776 102.1 80.048C102.564 80.312 102.928 80.688 103.192 81.176C103.456 81.656 103.588 82.212 103.588 82.844C103.588 82.884 103.584 82.928 103.576 82.976C103.576 83.016 103.576 83.06 103.576 83.108H98.0918V82.472H103.12L102.784 82.724C102.784 82.268 102.684 81.864 102.484 81.512C102.292 81.152 102.028 80.872 101.692 80.672C101.356 80.472 100.968 80.372 100.528 80.372C100.096 80.372 99.7078 80.472 99.3638 80.672C99.0198 80.872 98.7518 81.152 98.5598 81.512C98.3678 81.872 98.2718 82.284 98.2718 82.748V82.88C98.2718 83.36 98.3758 83.784 98.5838 84.152C98.7998 84.512 99.0958 84.796 99.4718 85.004C99.8558 85.204 100.292 85.304 100.78 85.304C101.164 85.304 101.52 85.236 101.848 85.1C102.184 84.964 102.472 84.756 102.712 84.476L103.192 85.028C102.912 85.364 102.56 85.62 102.136 85.796C101.72 85.972 101.26 86.06 100.756 86.06ZM105.474 86V79.7H106.326V82.484H110.298V79.7H111.15V86H110.298V83.216H106.326V86H105.474ZM113.571 86V79.7H114.423V84.704L118.635 79.7H119.391V86H118.539V80.984L114.339 86H113.571ZM121.833 86V79.7H122.685V82.484H126.657V79.7H127.509V86H126.657V83.216H122.685V86H121.833ZM133.843 86V84.608L133.807 84.38V82.052C133.807 81.516 133.655 81.104 133.351 80.816C133.055 80.528 132.611 80.384 132.019 80.384C131.611 80.384 131.223 80.452 130.855 80.588C130.487 80.724 130.175 80.904 129.919 81.128L129.535 80.492C129.855 80.22 130.239 80.012 130.687 79.868C131.135 79.716 131.607 79.64 132.103 79.64C132.919 79.64 133.547 79.844 133.987 80.252C134.435 80.652 134.659 81.264 134.659 82.088V86H133.843ZM131.671 86.06C131.199 86.06 130.787 85.984 130.435 85.832C130.091 85.672 129.827 85.456 129.643 85.184C129.459 84.904 129.367 84.584 129.367 84.224C129.367 83.896 129.443 83.6 129.595 83.336C129.755 83.064 130.011 82.848 130.363 82.688C130.723 82.52 131.203 82.436 131.803 82.436H133.975V83.072H131.827C131.219 83.072 130.795 83.18 130.555 83.396C130.323 83.612 130.207 83.88 130.207 84.2C130.207 84.56 130.347 84.848 130.627 85.064C130.907 85.28 131.299 85.388 131.803 85.388C132.283 85.388 132.695 85.28 133.039 85.064C133.391 84.84 133.647 84.52 133.807 84.104L133.999 84.692C133.839 85.108 133.559 85.44 133.159 85.688C132.767 85.936 132.271 86.06 131.671 86.06Z" fill="#393335"/>
<path d="M70.7679 60C71.5377 58.6667 73.4623 58.6667 74.2321 60L79.8612 69.75C80.631 71.0833 79.6688 72.75 78.1292 72.75H66.8708C65.3312 72.75 64.369 71.0833 65.1388 69.75L70.7679 60Z" fill="white"/>
</svg>
