<svg width="100" height="105" viewBox="0 0 100 105" fill="none" xmlns="http://www.w3.org/2000/svg">
<circle cx="51" cy="80" r="25" fill="white"/>
<path fill-rule="evenodd" clip-rule="evenodd" d="M57.5517 69L51.5 80.7021L45.4483 69L38 89.5957H44.0517L46.8448 81.6383L51.5 91L56.1552 81.6383L58.9483 89.5957H65L57.5517 69Z" fill="#9C163A"/>
<rect width="78" height="38" rx="5" transform="matrix(1 0 0 -1 11 38)" fill="white"/>
<path d="M21.6489 16.06C21.0249 16.06 20.4649 15.924 19.9689 15.652C19.4809 15.372 19.0969 14.992 18.8169 14.512C18.5369 14.024 18.3969 13.468 18.3969 12.844C18.3969 12.212 18.5369 11.656 18.8169 11.176C19.0969 10.696 19.4809 10.32 19.9689 10.048C20.4649 9.776 21.0249 9.64 21.6489 9.64C22.1849 9.64 22.6689 9.744 23.1009 9.952C23.5329 10.16 23.8729 10.472 24.1209 10.888L23.4849 11.32C23.2689 11 23.0009 10.764 22.6809 10.612C22.3609 10.46 22.0129 10.384 21.6369 10.384C21.1889 10.384 20.7849 10.488 20.4249 10.696C20.0649 10.896 19.7809 11.18 19.5729 11.548C19.3649 11.916 19.2609 12.348 19.2609 12.844C19.2609 13.34 19.3649 13.772 19.5729 14.14C19.7809 14.508 20.0649 14.796 20.4249 15.004C20.7849 15.204 21.1889 15.304 21.6369 15.304C22.0129 15.304 22.3609 15.228 22.6809 15.076C23.0009 14.924 23.2689 14.692 23.4849 14.38L24.1209 14.812C23.8729 15.22 23.5329 15.532 23.1009 15.748C22.6689 15.956 22.1849 16.06 21.6489 16.06ZM26.8534 16V10.216L27.0694 10.444H24.4654V9.7H30.0934V10.444H27.4894L27.7054 10.216V16H26.8534ZM30.8462 16.06C30.6702 16.06 30.5182 15.996 30.3902 15.868C30.2702 15.74 30.2102 15.584 30.2102 15.4C30.2102 15.208 30.2702 15.052 30.3902 14.932C30.5182 14.812 30.6702 14.752 30.8462 14.752C31.0222 14.752 31.1702 14.812 31.2902 14.932C31.4182 15.052 31.4822 15.208 31.4822 15.4C31.4822 15.584 31.4182 15.74 31.2902 15.868C31.1702 15.996 31.0222 16.06 30.8462 16.06ZM36.6738 16V7.6H39.8178C40.5298 7.6 41.1418 7.716 41.6538 7.948C42.1658 8.172 42.5578 8.5 42.8298 8.932C43.1098 9.356 43.2498 9.872 43.2498 10.48C43.2498 11.072 43.1098 11.584 42.8298 12.016C42.5578 12.44 42.1658 12.768 41.6538 13C41.1418 13.232 40.5298 13.348 39.8178 13.348H37.1658L37.5618 12.928V16H36.6738ZM37.5618 13L37.1658 12.568H39.7938C40.6338 12.568 41.2698 12.388 41.7018 12.028C42.1418 11.66 42.3618 11.144 42.3618 10.48C42.3618 9.808 42.1418 9.288 41.7018 8.92C41.2698 8.552 40.6338 8.368 39.7938 8.368H37.1658L37.5618 7.948V13ZM47.5253 16.06C46.8693 16.06 46.2933 15.924 45.7973 15.652C45.3013 15.372 44.9133 14.992 44.6333 14.512C44.3533 14.024 44.2133 13.468 44.2133 12.844C44.2133 12.22 44.3453 11.668 44.6093 11.188C44.8813 10.708 45.2493 10.332 45.7133 10.06C46.1853 9.78 46.7133 9.64 47.2973 9.64C47.8893 9.64 48.4133 9.776 48.8693 10.048C49.3333 10.312 49.6973 10.688 49.9613 11.176C50.2253 11.656 50.3573 12.212 50.3573 12.844C50.3573 12.884 50.3533 12.928 50.3453 12.976C50.3453 13.016 50.3453 13.06 50.3453 13.108H44.8613V12.472H49.8893L49.5533 12.724C49.5533 12.268 49.4533 11.864 49.2533 11.512C49.0613 11.152 48.7973 10.872 48.4613 10.672C48.1253 10.472 47.7373 10.372 47.2973 10.372C46.8653 10.372 46.4773 10.472 46.1333 10.672C45.7893 10.872 45.5213 11.152 45.3293 11.512C45.1373 11.872 45.0413 12.284 45.0413 12.748V12.88C45.0413 13.36 45.1453 13.784 45.3533 14.152C45.5693 14.512 45.8653 14.796 46.2413 15.004C46.6253 15.204 47.0613 15.304 47.5493 15.304C47.9333 15.304 48.2893 15.236 48.6173 15.1C48.9533 14.964 49.2413 14.756 49.4813 14.476L49.9613 15.028C49.6813 15.364 49.3293 15.62 48.9053 15.796C48.4893 15.972 48.0293 16.06 47.5253 16.06ZM56.2273 13.336C55.8593 13.496 55.4873 13.624 55.1113 13.72C54.7433 13.808 54.3753 13.852 54.0073 13.852C53.2633 13.852 52.6753 13.684 52.2433 13.348C51.8113 13.004 51.5953 12.476 51.5953 11.764V9.7H52.4353V11.716C52.4353 12.196 52.5913 12.556 52.9033 12.796C53.2153 13.036 53.6353 13.156 54.1633 13.156C54.4833 13.156 54.8193 13.116 55.1713 13.036C55.5233 12.948 55.8793 12.824 56.2393 12.664L56.2273 13.336ZM56.1553 16V9.7H57.0073V16H56.1553ZM59.4268 16V9.7H60.2788V12.484H64.2508V9.7H65.1028V16H64.2508V13.216H60.2788V16H59.4268ZM70.1165 16.06C69.5085 16.06 68.9605 15.924 68.4725 15.652C67.9925 15.372 67.6125 14.992 67.3325 14.512C67.0525 14.024 66.9125 13.468 66.9125 12.844C66.9125 12.212 67.0525 11.656 67.3325 11.176C67.6125 10.696 67.9925 10.32 68.4725 10.048C68.9525 9.776 69.5005 9.64 70.1165 9.64C70.7405 9.64 71.2925 9.776 71.7725 10.048C72.2605 10.32 72.6405 10.696 72.9125 11.176C73.1925 11.656 73.3325 12.212 73.3325 12.844C73.3325 13.468 73.1925 14.024 72.9125 14.512C72.6405 14.992 72.2605 15.372 71.7725 15.652C71.2845 15.924 70.7325 16.06 70.1165 16.06ZM70.1165 15.304C70.5725 15.304 70.9765 15.204 71.3285 15.004C71.6805 14.796 71.9565 14.508 72.1565 14.14C72.3645 13.764 72.4685 13.332 72.4685 12.844C72.4685 12.348 72.3645 11.916 72.1565 11.548C71.9565 11.18 71.6805 10.896 71.3285 10.696C70.9765 10.488 70.5765 10.384 70.1285 10.384C69.6805 10.384 69.2805 10.488 68.9285 10.696C68.5765 10.896 68.2965 11.18 68.0885 11.548C67.8805 11.916 67.7765 12.348 67.7765 12.844C67.7765 13.332 67.8805 13.764 68.0885 14.14C68.2965 14.508 68.5765 14.796 68.9285 15.004C69.2805 15.204 69.6765 15.304 70.1165 15.304ZM75.1534 16V9.7H76.0054V14.704L80.2174 9.7H80.9734V16H80.1214V10.984L75.9214 16H75.1534ZM78.0094 8.788C77.4814 8.788 77.0534 8.656 76.7254 8.392C76.4054 8.12 76.2374 7.732 76.2214 7.228H76.8334C76.8414 7.548 76.9534 7.8 77.1694 7.984C77.3854 8.168 77.6654 8.26 78.0094 8.26C78.3534 8.26 78.6334 8.168 78.8494 7.984C79.0734 7.8 79.1894 7.548 79.1974 7.228H79.8094C79.8014 7.732 79.6334 8.12 79.3054 8.392C78.9774 8.656 78.5454 8.788 78.0094 8.788ZM29.9483 31V24.7H32.7323C33.4443 24.7 34.0043 24.836 34.4123 25.108C34.8283 25.38 35.0363 25.78 35.0363 26.308C35.0363 26.82 34.8403 27.216 34.4483 27.496C34.0563 27.768 33.5403 27.904 32.9003 27.904L33.0683 27.652C33.8203 27.652 34.3723 27.792 34.7243 28.072C35.0763 28.352 35.2523 28.756 35.2523 29.284C35.2523 29.828 35.0523 30.252 34.6523 30.556C34.2603 30.852 33.6483 31 32.8163 31H29.9483ZM30.7763 30.328H32.7803C33.3163 30.328 33.7203 30.244 33.9923 30.076C34.2723 29.9 34.4123 29.62 34.4123 29.236C34.4123 28.852 34.2883 28.572 34.0403 28.396C33.7923 28.22 33.4003 28.132 32.8643 28.132H30.7763V30.328ZM30.7763 27.496H32.6723C33.1603 27.496 33.5323 27.404 33.7883 27.22C34.0523 27.036 34.1843 26.768 34.1843 26.416C34.1843 26.064 34.0523 25.8 33.7883 25.624C33.5323 25.448 33.1603 25.36 32.6723 25.36H30.7763V27.496ZM39.8411 31.06C39.2331 31.06 38.6851 30.924 38.1971 30.652C37.7171 30.372 37.3371 29.992 37.0571 29.512C36.7771 29.024 36.6371 28.468 36.6371 27.844C36.6371 27.212 36.7771 26.656 37.0571 26.176C37.3371 25.696 37.7171 25.32 38.1971 25.048C38.6771 24.776 39.2251 24.64 39.8411 24.64C40.4651 24.64 41.0171 24.776 41.4971 25.048C41.9851 25.32 42.3651 25.696 42.6371 26.176C42.9171 26.656 43.0571 27.212 43.0571 27.844C43.0571 28.468 42.9171 29.024 42.6371 29.512C42.3651 29.992 41.9851 30.372 41.4971 30.652C41.0091 30.924 40.4571 31.06 39.8411 31.06ZM39.8411 30.304C40.2971 30.304 40.7011 30.204 41.0531 30.004C41.4051 29.796 41.6811 29.508 41.8811 29.14C42.0891 28.764 42.1931 28.332 42.1931 27.844C42.1931 27.348 42.0891 26.916 41.8811 26.548C41.6811 26.18 41.4051 25.896 41.0531 25.696C40.7011 25.488 40.3011 25.384 39.8531 25.384C39.4051 25.384 39.0051 25.488 38.6531 25.696C38.3011 25.896 38.0211 26.18 37.8131 26.548C37.6051 26.916 37.5011 27.348 37.5011 27.844C37.5011 28.332 37.6051 28.764 37.8131 29.14C38.0211 29.508 38.3011 29.796 38.6531 30.004C39.0051 30.204 39.4011 30.304 39.8411 30.304ZM49.498 31L46.906 27.88L47.614 27.46L50.506 31H49.498ZM44.878 31V24.7H45.73V31H44.878ZM45.466 28.192V27.46H47.494V28.192H45.466ZM47.686 27.94L46.894 27.82L49.402 24.7H50.326L47.686 27.94ZM53.1794 31.072C52.7234 31.072 52.2714 31.008 51.8234 30.88C51.3754 30.752 50.9794 30.556 50.6354 30.292L50.9114 29.656C51.2154 29.88 51.5674 30.052 51.9674 30.172C52.3674 30.284 52.7634 30.34 53.1554 30.34C53.5474 30.332 53.8874 30.276 54.1754 30.172C54.4634 30.068 54.6874 29.924 54.8474 29.74C55.0074 29.556 55.0874 29.348 55.0874 29.116C55.0874 28.78 54.9354 28.52 54.6314 28.336C54.3274 28.144 53.9114 28.048 53.3834 28.048H52.3034V27.424H53.3234C53.6354 27.424 53.9114 27.384 54.1514 27.304C54.3914 27.224 54.5754 27.108 54.7034 26.956C54.8394 26.804 54.9074 26.624 54.9074 26.416C54.9074 26.192 54.8274 26 54.6674 25.84C54.5154 25.68 54.3034 25.56 54.0314 25.48C53.7594 25.4 53.4514 25.36 53.1074 25.36C52.7954 25.368 52.4714 25.416 52.1354 25.504C51.7994 25.584 51.4674 25.708 51.1394 25.876L50.8994 25.216C51.2674 25.024 51.6314 24.88 51.9914 24.784C52.3594 24.68 52.7274 24.628 53.0954 24.628C53.5994 24.612 54.0514 24.672 54.4514 24.808C54.8594 24.944 55.1834 25.14 55.4234 25.396C55.6634 25.644 55.7834 25.944 55.7834 26.296C55.7834 26.608 55.6874 26.88 55.4954 27.112C55.3034 27.344 55.0474 27.524 54.7274 27.652C54.4074 27.78 54.0434 27.844 53.6354 27.844L53.6714 27.616C54.3914 27.616 54.9514 27.756 55.3514 28.036C55.7594 28.316 55.9634 28.696 55.9634 29.176C55.9634 29.552 55.8394 29.884 55.5914 30.172C55.3434 30.452 55.0074 30.672 54.5834 30.832C54.1674 30.992 53.6994 31.072 53.1794 31.072ZM61.8095 31V29.608L61.7735 29.38V27.052C61.7735 26.516 61.6215 26.104 61.3175 25.816C61.0215 25.528 60.5775 25.384 59.9855 25.384C59.5775 25.384 59.1895 25.452 58.8215 25.588C58.4535 25.724 58.1415 25.904 57.8855 26.128L57.5015 25.492C57.8215 25.22 58.2055 25.012 58.6535 24.868C59.1015 24.716 59.5735 24.64 60.0695 24.64C60.8855 24.64 61.5135 24.844 61.9535 25.252C62.4015 25.652 62.6255 26.264 62.6255 27.088V31H61.8095ZM59.6375 31.06C59.1655 31.06 58.7535 30.984 58.4015 30.832C58.0575 30.672 57.7935 30.456 57.6095 30.184C57.4255 29.904 57.3335 29.584 57.3335 29.224C57.3335 28.896 57.4095 28.6 57.5615 28.336C57.7215 28.064 57.9775 27.848 58.3295 27.688C58.6895 27.52 59.1695 27.436 59.7695 27.436H61.9415V28.072H59.7935C59.1855 28.072 58.7615 28.18 58.5215 28.396C58.2895 28.612 58.1735 28.88 58.1735 29.2C58.1735 29.56 58.3135 29.848 58.5935 30.064C58.8735 30.28 59.2655 30.388 59.7695 30.388C60.2495 30.388 60.6615 30.28 61.0055 30.064C61.3575 29.84 61.6135 29.52 61.7735 29.104L61.9655 29.692C61.8055 30.108 61.5255 30.44 61.1255 30.688C60.7335 30.936 60.2375 31.06 59.6375 31.06ZM63.7416 30.988L63.8016 30.256C63.8576 30.264 63.9096 30.276 63.9576 30.292C64.0136 30.3 64.0616 30.304 64.1016 30.304C64.3576 30.304 64.5616 30.208 64.7136 30.016C64.8736 29.824 64.9936 29.568 65.0736 29.248C65.1536 28.928 65.2096 28.568 65.2416 28.168C65.2736 27.76 65.3016 27.352 65.3256 26.944L65.4336 24.7H70.0536V31H69.2016V25.192L69.4176 25.444H65.9856L66.1896 25.18L66.0936 27.004C66.0696 27.548 66.0256 28.068 65.9616 28.564C65.9056 29.06 65.8136 29.496 65.6856 29.872C65.5656 30.248 65.3976 30.544 65.1816 30.76C64.9656 30.968 64.6896 31.072 64.3536 31.072C64.2576 31.072 64.1576 31.064 64.0536 31.048C63.9576 31.032 63.8536 31.012 63.7416 30.988Z" fill="#393335"/>
<path d="M48.7679 48C49.5377 49.3333 51.4623 49.3333 52.2321 48L57.8612 38.25C58.631 36.9167 57.6688 35.25 56.1292 35.25H44.8708C43.3312 35.25 42.369 36.9167 43.1388 38.25L48.7679 48Z" fill="white"/>
</svg>
