<svg width="123" height="93" viewBox="0 0 123 93" fill="none" xmlns="http://www.w3.org/2000/svg">
<rect y="69" width="123" height="24" rx="5" fill="white"/>
<path d="M12.852 85.06C12.228 85.06 11.668 84.924 11.172 84.652C10.684 84.372 10.3 83.992 10.02 83.512C9.74 83.024 9.6 82.468 9.6 81.844C9.6 81.212 9.74 80.656 10.02 80.176C10.3 79.696 10.684 79.32 11.172 79.048C11.668 78.776 12.228 78.64 12.852 78.64C13.388 78.64 13.872 78.744 14.304 78.952C14.736 79.16 15.076 79.472 15.324 79.888L14.688 80.32C14.472 80 14.204 79.764 13.884 79.612C13.564 79.46 13.216 79.384 12.84 79.384C12.392 79.384 11.988 79.488 11.628 79.696C11.268 79.896 10.984 80.18 10.776 80.548C10.568 80.916 10.464 81.348 10.464 81.844C10.464 82.34 10.568 82.772 10.776 83.14C10.984 83.508 11.268 83.796 11.628 84.004C11.988 84.204 12.392 84.304 12.84 84.304C13.216 84.304 13.564 84.228 13.884 84.076C14.204 83.924 14.472 83.692 14.688 83.38L15.324 83.812C15.076 84.22 14.736 84.532 14.304 84.748C13.872 84.956 13.388 85.06 12.852 85.06ZM18.0565 85V79.216L18.2725 79.444H15.6685V78.7H21.2965V79.444H18.6925L18.9085 79.216V85H18.0565ZM22.0493 85.06C21.8733 85.06 21.7213 84.996 21.5933 84.868C21.4733 84.74 21.4133 84.584 21.4133 84.4C21.4133 84.208 21.4733 84.052 21.5933 83.932C21.7213 83.812 21.8733 83.752 22.0493 83.752C22.2253 83.752 22.3733 83.812 22.4933 83.932C22.6213 84.052 22.6853 84.208 22.6853 84.4C22.6853 84.584 22.6213 84.74 22.4933 84.868C22.3733 84.996 22.2253 85.06 22.0493 85.06ZM26.8809 83.992L27.2049 83.356C27.5729 83.676 27.9849 83.916 28.4409 84.076C28.9049 84.228 29.3689 84.308 29.8329 84.316C30.2969 84.316 30.7209 84.248 31.1049 84.112C31.4969 83.976 31.8129 83.776 32.0529 83.512C32.2929 83.24 32.4129 82.912 32.4129 82.528C32.4129 82.04 32.2169 81.664 31.8249 81.4C31.4409 81.136 30.9049 81.004 30.2169 81.004H28.4169V80.284H30.1689C30.7609 80.284 31.2209 80.16 31.5489 79.912C31.8849 79.656 32.0529 79.304 32.0529 78.856C32.0529 78.536 31.9569 78.264 31.7649 78.04C31.5809 77.808 31.3249 77.632 30.9969 77.512C30.6769 77.384 30.3169 77.316 29.9169 77.308C29.5169 77.292 29.1009 77.344 28.6689 77.464C28.2449 77.576 27.8329 77.756 27.4329 78.004L27.1449 77.272C27.6409 76.976 28.1569 76.772 28.6929 76.66C29.2289 76.54 29.7489 76.5 30.2529 76.54C30.7569 76.58 31.2089 76.696 31.6089 76.888C32.0169 77.08 32.3409 77.332 32.5809 77.644C32.8209 77.956 32.9409 78.328 32.9409 78.76C32.9409 79.16 32.8369 79.512 32.6289 79.816C32.4289 80.12 32.1449 80.356 31.7769 80.524C31.4169 80.684 30.9889 80.764 30.4929 80.764L30.5409 80.5C31.1009 80.5 31.5849 80.588 31.9929 80.764C32.4089 80.94 32.7289 81.192 32.9529 81.52C33.1849 81.84 33.3009 82.216 33.3009 82.648C33.3009 83.056 33.1969 83.42 32.9889 83.74C32.7889 84.052 32.5089 84.316 32.1489 84.532C31.7969 84.74 31.4009 84.892 30.9609 84.988C30.5209 85.076 30.0609 85.1 29.5809 85.06C29.1009 85.02 28.6289 84.916 28.1649 84.748C27.7009 84.572 27.2729 84.32 26.8809 83.992ZM39.2138 85V83.608L39.1778 83.38V81.052C39.1778 80.516 39.0258 80.104 38.7218 79.816C38.4258 79.528 37.9818 79.384 37.3898 79.384C36.9818 79.384 36.5938 79.452 36.2258 79.588C35.8578 79.724 35.5458 79.904 35.2898 80.128L34.9058 79.492C35.2258 79.22 35.6098 79.012 36.0578 78.868C36.5058 78.716 36.9778 78.64 37.4738 78.64C38.2898 78.64 38.9178 78.844 39.3578 79.252C39.8058 79.652 40.0298 80.264 40.0298 81.088V85H39.2138ZM37.0418 85.06C36.5698 85.06 36.1578 84.984 35.8058 84.832C35.4618 84.672 35.1978 84.456 35.0138 84.184C34.8298 83.904 34.7378 83.584 34.7378 83.224C34.7378 82.896 34.8138 82.6 34.9658 82.336C35.1258 82.064 35.3818 81.848 35.7338 81.688C36.0938 81.52 36.5738 81.436 37.1738 81.436H39.3458V82.072H37.1978C36.5898 82.072 36.1658 82.18 35.9258 82.396C35.6938 82.612 35.5778 82.88 35.5778 83.2C35.5778 83.56 35.7178 83.848 35.9978 84.064C36.2778 84.28 36.6698 84.388 37.1738 84.388C37.6538 84.388 38.0658 84.28 38.4098 84.064C38.7618 83.84 39.0178 83.52 39.1778 83.104L39.3698 83.692C39.2098 84.108 38.9298 84.44 38.5298 84.688C38.1378 84.936 37.6418 85.06 37.0418 85.06ZM44.9979 85.06C44.3419 85.06 43.7659 84.924 43.2699 84.652C42.7739 84.372 42.3859 83.992 42.1059 83.512C41.8259 83.024 41.6859 82.468 41.6859 81.844C41.6859 81.22 41.8179 80.668 42.0819 80.188C42.3539 79.708 42.7219 79.332 43.1859 79.06C43.6579 78.78 44.1859 78.64 44.7699 78.64C45.3619 78.64 45.8859 78.776 46.3419 79.048C46.8059 79.312 47.1699 79.688 47.4339 80.176C47.6979 80.656 47.8299 81.212 47.8299 81.844C47.8299 81.884 47.8259 81.928 47.8179 81.976C47.8179 82.016 47.8179 82.06 47.8179 82.108H42.3339V81.472H47.3619L47.0259 81.724C47.0259 81.268 46.9259 80.864 46.7259 80.512C46.5339 80.152 46.2699 79.872 45.9339 79.672C45.5979 79.472 45.2099 79.372 44.7699 79.372C44.3379 79.372 43.9499 79.472 43.6059 79.672C43.2619 79.872 42.9939 80.152 42.8019 80.512C42.6099 80.872 42.5139 81.284 42.5139 81.748V81.88C42.5139 82.36 42.6179 82.784 42.8259 83.152C43.0419 83.512 43.3379 83.796 43.7139 84.004C44.0979 84.204 44.5339 84.304 45.0219 84.304C45.4059 84.304 45.7619 84.236 46.0899 84.1C46.4259 83.964 46.7139 83.756 46.9539 83.476L47.4339 84.028C47.1539 84.364 46.8019 84.62 46.3779 84.796C45.9619 84.972 45.5019 85.06 44.9979 85.06ZM48.435 84.988L48.495 84.256C48.551 84.264 48.603 84.276 48.651 84.292C48.707 84.3 48.755 84.304 48.795 84.304C49.051 84.304 49.255 84.208 49.407 84.016C49.567 83.824 49.687 83.568 49.767 83.248C49.847 82.928 49.903 82.568 49.935 82.168C49.967 81.76 49.995 81.352 50.019 80.944L50.127 78.7H54.747V85H53.895V79.192L54.111 79.444H50.679L50.883 79.18L50.787 81.004C50.763 81.548 50.719 82.068 50.655 82.564C50.599 83.06 50.507 83.496 50.379 83.872C50.259 84.248 50.091 84.544 49.875 84.76C49.659 84.968 49.383 85.072 49.047 85.072C48.951 85.072 48.851 85.064 48.747 85.048C48.651 85.032 48.547 85.012 48.435 84.988ZM59.881 80.92C60.673 80.928 61.273 81.104 61.681 81.448C62.097 81.792 62.305 82.288 62.305 82.936C62.305 83.608 62.081 84.124 61.633 84.484C61.193 84.844 60.553 85.02 59.713 85.012L57.169 85V78.7H58.021V80.896L59.881 80.92ZM59.665 84.364C60.249 84.372 60.689 84.256 60.985 84.016C61.289 83.768 61.441 83.408 61.441 82.936C61.441 82.464 61.293 82.12 60.997 81.904C60.701 81.68 60.257 81.564 59.665 81.556L58.021 81.532V84.34L59.665 84.364ZM63.9308 85V78.7H64.7828V84.256H68.6348V78.7H69.4868V85H63.9308ZM69.7028 86.524V84.928L69.9188 85H68.6348V84.256H70.5068V86.524H69.7028ZM74.7259 85.06C74.1179 85.06 73.5699 84.924 73.0819 84.652C72.6019 84.372 72.2219 83.992 71.9419 83.512C71.6619 83.024 71.5219 82.468 71.5219 81.844C71.5219 81.212 71.6619 80.656 71.9419 80.176C72.2219 79.696 72.6019 79.32 73.0819 79.048C73.5619 78.776 74.1099 78.64 74.7259 78.64C75.3499 78.64 75.9019 78.776 76.3819 79.048C76.8699 79.32 77.2499 79.696 77.5219 80.176C77.8019 80.656 77.9419 81.212 77.9419 81.844C77.9419 82.468 77.8019 83.024 77.5219 83.512C77.2499 83.992 76.8699 84.372 76.3819 84.652C75.8939 84.924 75.3419 85.06 74.7259 85.06ZM74.7259 84.304C75.1819 84.304 75.5859 84.204 75.9379 84.004C76.2899 83.796 76.5659 83.508 76.7659 83.14C76.9739 82.764 77.0779 82.332 77.0779 81.844C77.0779 81.348 76.9739 80.916 76.7659 80.548C76.5659 80.18 76.2899 79.896 75.9379 79.696C75.5859 79.488 75.1859 79.384 74.7379 79.384C74.2899 79.384 73.8899 79.488 73.5379 79.696C73.1859 79.896 72.9059 80.18 72.6979 80.548C72.4899 80.916 72.3859 81.348 72.3859 81.844C72.3859 82.332 72.4899 82.764 72.6979 83.14C72.9059 83.508 73.1859 83.796 73.5379 84.004C73.8899 84.204 74.2859 84.304 74.7259 84.304ZM79.7628 85V78.7H82.5468C83.2588 78.7 83.8188 78.836 84.2268 79.108C84.6428 79.38 84.8508 79.78 84.8508 80.308C84.8508 80.82 84.6548 81.216 84.2628 81.496C83.8708 81.768 83.3548 81.904 82.7148 81.904L82.8828 81.652C83.6348 81.652 84.1868 81.792 84.5388 82.072C84.8908 82.352 85.0668 82.756 85.0668 83.284C85.0668 83.828 84.8668 84.252 84.4668 84.556C84.0748 84.852 83.4628 85 82.6308 85H79.7628ZM80.5908 84.328H82.5948C83.1308 84.328 83.5348 84.244 83.8068 84.076C84.0868 83.9 84.2268 83.62 84.2268 83.236C84.2268 82.852 84.1028 82.572 83.8548 82.396C83.6068 82.22 83.2148 82.132 82.6788 82.132H80.5908V84.328ZM80.5908 81.496H82.4868C82.9748 81.496 83.3468 81.404 83.6028 81.22C83.8668 81.036 83.9988 80.768 83.9988 80.416C83.9988 80.064 83.8668 79.8 83.6028 79.624C83.3468 79.448 82.9748 79.36 82.4868 79.36H80.5908V81.496ZM89.7036 85.06C89.0796 85.06 88.5196 84.924 88.0236 84.652C87.5356 84.372 87.1516 83.992 86.8716 83.512C86.5916 83.024 86.4516 82.468 86.4516 81.844C86.4516 81.212 86.5916 80.656 86.8716 80.176C87.1516 79.696 87.5356 79.32 88.0236 79.048C88.5196 78.776 89.0796 78.64 89.7036 78.64C90.2396 78.64 90.7236 78.744 91.1556 78.952C91.5876 79.16 91.9276 79.472 92.1756 79.888L91.5396 80.32C91.3236 80 91.0556 79.764 90.7356 79.612C90.4156 79.46 90.0676 79.384 89.6916 79.384C89.2436 79.384 88.8396 79.488 88.4796 79.696C88.1196 79.896 87.8356 80.18 87.6276 80.548C87.4196 80.916 87.3156 81.348 87.3156 81.844C87.3156 82.34 87.4196 82.772 87.6276 83.14C87.8356 83.508 88.1196 83.796 88.4796 84.004C88.8396 84.204 89.2436 84.304 89.6916 84.304C90.0676 84.304 90.4156 84.228 90.7356 84.076C91.0556 83.924 91.3236 83.692 91.5396 83.38L92.1756 83.812C91.9276 84.22 91.5876 84.532 91.1556 84.748C90.7236 84.956 90.2396 85.06 89.7036 85.06ZM98.4453 85L95.8533 81.88L96.5613 81.46L99.4533 85H98.4453ZM93.8253 85V78.7H94.6773V85H93.8253ZM94.4133 82.192V81.46H96.4413V82.192H94.4133ZM96.6333 81.94L95.8413 81.82L98.3493 78.7H99.2733L96.6333 81.94ZM104.593 85V83.608L104.557 83.38V81.052C104.557 80.516 104.405 80.104 104.101 79.816C103.805 79.528 103.361 79.384 102.769 79.384C102.361 79.384 101.973 79.452 101.605 79.588C101.237 79.724 100.925 79.904 100.669 80.128L100.285 79.492C100.605 79.22 100.989 79.012 101.437 78.868C101.885 78.716 102.357 78.64 102.853 78.64C103.669 78.64 104.297 78.844 104.737 79.252C105.185 79.652 105.409 80.264 105.409 81.088V85H104.593ZM102.421 85.06C101.949 85.06 101.537 84.984 101.185 84.832C100.841 84.672 100.577 84.456 100.393 84.184C100.209 83.904 100.117 83.584 100.117 83.224C100.117 82.896 100.193 82.6 100.345 82.336C100.505 82.064 100.761 81.848 101.113 81.688C101.473 81.52 101.953 81.436 102.553 81.436H104.725V82.072H102.577C101.969 82.072 101.545 82.18 101.305 82.396C101.073 82.612 100.957 82.88 100.957 83.2C100.957 83.56 101.097 83.848 101.377 84.064C101.657 84.28 102.049 84.388 102.553 84.388C103.033 84.388 103.445 84.28 103.789 84.064C104.141 83.84 104.397 83.52 104.557 83.104L104.749 83.692C104.589 84.108 104.309 84.44 103.909 84.688C103.517 84.936 103.021 85.06 102.421 85.06ZM111.745 85V82.732L111.901 82.912H109.765C108.957 82.912 108.325 82.736 107.869 82.384C107.413 82.032 107.185 81.52 107.185 80.848C107.185 80.128 107.429 79.592 107.917 79.24C108.405 78.88 109.057 78.7 109.873 78.7H112.525V85H111.745ZM107.137 85L108.865 82.576H109.753L108.061 85H107.137ZM111.745 82.48V79.192L111.901 79.444H109.897C109.313 79.444 108.857 79.556 108.529 79.78C108.209 80.004 108.049 80.368 108.049 80.872C108.049 81.808 108.645 82.276 109.837 82.276H111.901L111.745 82.48Z" fill="#393335"/>
<path d="M59.7679 59C60.5377 57.6667 62.4623 57.6667 63.2321 59L68.8612 68.75C69.631 70.0833 68.6688 71.75 67.1292 71.75H55.8708C54.3312 71.75 53.369 70.0833 54.1388 68.75L59.7679 59Z" fill="white"/>
<circle cx="61" cy="25" r="25" fill="white"/>
<path fill-rule="evenodd" clip-rule="evenodd" d="M67.5517 14L61.5 25.7021L55.4483 14L48 34.5957H54.0517L56.8448 26.6383L61.5 36L66.1552 26.6383L68.9483 34.5957H75L67.5517 14Z" fill="#9C163A"/>
</svg>
