<svg width="162" height="145" viewBox="0 0 162 145" fill="none" xmlns="http://www.w3.org/2000/svg">
<path d="M0 21.0259H15.2022V25.302V112.241H10.9261V25.302H4.74529H0.00233413V21.0259H0ZM0 0H76.6296H161.524V5.26114H155.689H78.826V112.241H73.5649V5.26114H65.9556H0L0 0ZM97.4151 112.241V22.5991H123.067L123.009 26.6861H101.964V63.7895H121.375V68.4158H101.964V107.793H123.707L123.889 112.239H97.4174L97.4151 112.241ZM135.235 112.241H139.784V40.7096L157.776 112.241H161.524V22.48H157.076V90.5014L140.022 22.48L135.233 22.5991V112.241H135.235ZM33.9546 65.4374V57.3683V53.5567L34.0153 32.9019C34.0153 30.5305 34.4005 28.6258 35.1707 27.2067C35.9386 25.7665 37.0357 25.0569 38.4759 25.0569H46.6663C48.9561 25.0569 50.436 25.7268 51.0638 27.0829C51.6917 28.4227 52.0138 30.4068 52.0138 33.0233V49.7684V64.9706V83.2515V100.118C51.8528 102.651 51.449 104.6 50.8188 105.935C50.1932 107.293 48.732 107.963 46.4212 107.963H40.6046C37.7663 107.963 35.941 107.253 35.1521 105.834C34.3608 104.394 33.957 102.429 33.957 99.8939V73.2824V65.4374H33.9546ZM56.1709 49.7684V29.8209C56.2503 27.5918 55.7648 25.5844 54.7494 23.7591C53.7177 21.9338 51.7711 20.9418 48.9141 20.7808H37.2808C34.4822 20.9418 32.4538 21.9759 31.2587 23.8805C30.0426 25.7665 29.4334 27.9956 29.4334 30.5281V34.3188V98.6965V102.508C29.4334 104.88 30.0006 107.046 31.1373 109.034C32.2741 111.002 34.2371 112.073 37.0357 112.237H47.2522C49.7871 112.073 51.8948 111.081 53.5567 109.275C55.2163 107.454 56.0495 105.183 56.0495 102.506L56.1709 49.7637V49.7684Z" fill="white"/>
<path d="M0.1875 123.045H3.37359H6.55968V124.063H5.43463H3.7984V144.711H2.78306V124.063H1.31255H0.1875V123.045ZM126.761 144.697V123.029H130.189C130.831 123.078 131.361 123.316 131.784 123.755C132.206 124.191 132.535 124.863 132.771 125.771C133.009 126.677 133.123 127.632 133.123 128.628C133.123 129.539 133.023 130.405 132.815 131.224C132.608 132.043 132.29 132.701 131.858 133.196C132.421 133.572 132.846 134.221 133.135 135.148C133.424 136.067 133.562 137.16 133.562 138.415C133.562 139.433 133.476 140.376 133.298 141.249C133.121 142.115 132.899 142.792 132.633 143.256C132.367 143.728 132.036 144.083 131.639 144.328C131.237 144.575 130.752 144.694 130.18 144.694H126.765L126.761 144.697ZM127.748 132.86H129.823C130.388 132.86 130.794 132.741 131.051 132.494C131.377 132.19 131.623 131.702 131.781 131.014C131.94 130.33 132.024 129.466 132.024 128.432C132.024 127.429 131.947 126.584 131.793 125.909C131.637 125.23 131.426 124.749 131.163 124.471C130.904 124.187 130.402 123.979 129.667 123.848H127.748V132.86ZM127.718 143.905L130.103 143.936C130.624 143.8 131.041 143.483 131.359 142.976C131.681 142.465 131.926 141.879 132.108 141.209C132.288 140.547 132.374 139.727 132.374 138.759C132.374 137.685 132.283 136.737 132.096 135.916C131.91 135.089 131.648 134.517 131.317 134.184C130.99 133.857 130.533 133.696 129.947 133.696H127.718V143.905ZM143.713 127.373L141.372 144.697H140.175L143.461 122.998H144.684L148.228 144.697H146.913L144.01 125.158L143.713 127.373ZM154.588 144.697V122.987H158.068C158.778 122.987 159.31 123.185 159.674 123.575C160.036 123.962 160.33 124.651 160.545 125.638C160.764 126.626 160.876 127.718 160.876 128.913C160.876 130.454 160.697 131.749 160.339 132.804C159.971 133.857 159.417 134.527 158.663 134.807C158.937 135.173 159.147 135.537 159.284 135.895C159.588 136.665 159.873 137.622 160.146 138.775L161.527 144.697H160.218L159.172 140.171C158.86 138.859 158.61 137.865 158.411 137.169C158.213 136.478 158.038 135.995 157.884 135.727C157.732 135.451 157.571 135.26 157.412 135.15C157.296 135.08 157.104 135.047 156.834 135.047H155.622V144.699H154.59L154.588 144.697ZM155.634 134.2H157.564C158.206 134.09 158.642 133.815 158.888 133.383C159.135 132.954 159.34 132.356 159.508 131.607C159.679 130.855 159.793 129.931 159.852 128.827C159.852 127.317 159.709 126.103 159.443 125.188C159.168 124.28 158.502 123.764 157.45 123.652H155.634V134.202V134.2ZM13.387 144.711V123.071H19.5795L19.5655 124.061H14.4864V133.014H19.1687V134.132H14.4864V143.637H19.7335L19.7755 144.711H13.387ZM26.5469 144.711V122.998H30.0294C30.7366 122.998 31.2712 123.195 31.6306 123.587C31.9924 123.976 32.2888 124.665 32.5059 125.652C32.7253 126.637 32.8374 127.732 32.8374 128.927C32.8374 130.468 32.66 131.763 32.2958 132.816C31.9317 133.871 31.3785 134.541 30.6223 134.821C30.8977 135.187 31.1031 135.554 31.2408 135.909C31.5466 136.679 31.8313 137.638 32.1044 138.789L33.4862 144.711H32.1745L31.1311 140.185C30.816 138.873 30.5662 137.879 30.3702 137.185C30.1741 136.492 29.9967 136.009 29.8403 135.741C29.6886 135.467 29.5299 135.276 29.3688 135.164C29.2521 135.096 29.0607 135.064 28.7923 135.064H27.5786V144.713H26.5469V144.711ZM27.5926 134.214H29.5229C30.1624 134.102 30.5989 133.829 30.8463 133.397C31.0914 132.97 31.2992 132.37 31.4696 131.618C31.6376 130.869 31.752 129.945 31.8127 128.841C31.8127 127.331 31.6703 126.117 31.4019 125.202C31.1288 124.292 30.4635 123.776 29.4085 123.664H27.5949V134.214H27.5926ZM39.7324 144.711V122.998H43.2149C43.9222 122.998 44.4567 123.195 44.8185 123.587C45.1779 123.976 45.4744 124.665 45.6914 125.652C45.9132 126.637 46.0229 127.732 46.0229 128.927C46.0229 130.468 45.8455 131.763 45.4837 132.816C45.1172 133.871 44.5664 134.541 43.8101 134.821C44.0832 135.187 44.2909 135.554 44.4287 135.909C44.7321 136.679 45.0169 137.638 45.2923 138.789L46.6741 144.711H45.3623L44.319 140.185C44.0062 138.873 43.7564 137.879 43.558 137.185C43.3596 136.492 43.1822 136.009 43.0282 135.741C42.8741 135.467 42.7154 135.276 42.5567 135.164C42.44 135.096 42.2486 135.064 41.9802 135.064H40.7664V144.713H39.7347L39.7324 144.711ZM40.7781 134.214H42.7084C43.3526 134.102 43.7868 133.829 44.0342 133.397C44.2769 132.97 44.487 132.37 44.6551 131.618C44.8231 130.869 44.9398 129.945 44.9959 128.841C44.9959 127.331 44.8558 126.117 44.5874 125.202C44.312 124.292 43.6491 123.776 42.594 123.664H40.7781V134.214ZM56.4004 127.387L54.0593 144.711H52.8619L56.1483 123.015H57.3738L60.917 144.711H59.6029L56.6992 125.169L56.4004 127.387ZM68.3885 133.593V131.677V130.771L68.4025 125.865C68.4025 125.302 68.4959 124.849 68.678 124.513C68.86 124.173 69.1215 124.002 69.4622 124.002H71.4066C71.9504 124.002 72.3029 124.159 72.4523 124.483C72.6017 124.8 72.6763 125.274 72.6763 125.893V129.873H73.6637V125.134C73.6824 124.604 73.5143 124.128 73.1525 123.694C72.7954 123.26 72.3332 123.024 71.7707 122.987H69.1751C68.5099 123.024 68.0291 123.272 67.7467 123.724C67.4549 124.17 67.3102 124.702 67.3102 125.302V126.201V141.494V142.4C67.3102 142.962 67.4479 143.478 67.7163 143.95C67.9847 144.419 68.4516 144.673 69.1168 144.711H71.8851C72.4499 144.673 72.8817 144.438 73.1805 144.008C73.484 143.576 73.624 143.093 73.6053 142.568V137.825H72.618V141.8C72.618 142.423 72.541 142.895 72.3916 143.212C72.2422 143.534 71.8944 143.693 71.3459 143.693H69.9641C69.2895 143.693 68.8554 143.527 68.6686 143.189C68.4819 142.848 68.3839 142.379 68.3839 141.777V135.458V133.593H68.3885ZM80.4653 144.711V123.071H86.6555L86.6415 124.061H81.5624V133.014H86.247V134.132H81.5624V143.637H86.8095L86.8515 144.711H80.463H80.4653ZM112.333 144.711L110.954 142.206C110.263 143.24 109.6 143.964 108.951 144.377C108.3 144.792 107.553 145 106.706 145C105.56 145 104.659 144.533 104 143.604C103.347 142.673 103.015 141.368 103.015 139.692C103.015 138.836 103.12 138.072 103.328 137.402C103.536 136.728 103.839 136.105 104.243 135.537C104.649 134.968 105.27 134.324 106.103 133.598C105.41 132.321 104.957 131.273 104.745 130.458C104.533 129.641 104.428 128.733 104.428 127.73C104.428 126.49 104.675 125.524 105.16 124.828C105.653 124.14 106.316 123.794 107.163 123.794C108.02 123.794 108.69 124.152 109.178 124.859C109.663 125.571 109.91 126.574 109.91 127.872C109.91 129.168 109.733 130.276 109.374 131.187C109.019 132.099 108.426 132.972 107.597 133.796L110.926 139.751C111.458 138.64 111.729 137.262 111.729 135.614H113.055C113.055 136.501 112.919 137.458 112.644 138.492C112.368 139.529 112.046 140.381 111.673 141.048L113.871 144.708H112.336L112.333 144.711ZM104.365 139.723C104.365 140.988 104.591 141.966 105.037 142.647C105.48 143.326 106.078 143.667 106.82 143.667C107.495 143.667 108.111 143.45 108.662 143.018C109.22 142.589 109.752 141.919 110.258 141.018L106.68 134.594C105.784 135.423 105.177 136.214 104.85 136.959C104.528 137.706 104.362 138.626 104.362 139.718L104.365 139.723ZM108.582 127.872C108.582 126 108.085 125.064 107.098 125.064C106.671 125.064 106.332 125.307 106.101 125.783C105.863 126.264 105.744 126.957 105.744 127.872C105.744 128.691 105.861 129.553 106.092 130.451C106.323 131.357 106.619 132.113 106.988 132.727C107.6 132.104 108.015 131.385 108.239 130.58C108.466 129.774 108.582 128.869 108.582 127.872Z" fill="white"/>
</svg>
