<svg width="184" height="65" viewBox="0 0 184 65" fill="none" xmlns="http://www.w3.org/2000/svg">
<path fill-rule="evenodd" clip-rule="evenodd" d="M107.994 8.977C109.269 8.96788 110.996 8.86111 112.272 8.86111C112.52 8.86111 112.724 9.06285 112.724 9.3166C112.724 9.56768 112.52 9.76994 112.272 9.76994C110.996 9.76994 109.269 9.66317 107.994 9.65405V25.8811C107.994 26.5506 108.103 27.2996 108.522 27.8463C108.864 28.298 109.32 28.5067 109.884 28.5067C110.535 28.5067 111.099 28.2926 111.517 27.7835C112.376 26.7373 112.098 25.8677 112.098 24.6542C112.098 24.4047 112.23 24.1096 112.641 24.1096C113.048 24.1096 113.182 24.4047 113.182 24.6542C113.182 26.1558 112.65 27.9203 111.412 28.9203C110.315 29.8039 108.791 30.034 107.427 30.034C105.896 30.034 104.303 29.7084 103.17 28.6038C102.052 27.5136 101.711 25.9718 101.711 24.4535V9.65353H98.2683V8.97648C101.006 8.97648 107.289 7.60524 107.319 0.141666V0L107.994 1.27415V8.977ZM111.946 48.0959C112.739 48.0959 113.425 48.3797 113.987 49.061C114.496 49.7402 114.784 50.7628 114.784 52.178C114.784 53.2027 114.667 54.2231 114.439 55.1882C114.159 56.148 113.819 57.0042 113.363 57.6834C112.854 58.42 112.286 58.9876 111.549 59.4425C110.811 59.8406 110.015 60.0692 109.052 60.0692C108.486 60.0692 107.918 60.009 107.404 59.8406C106.836 59.7263 106.216 59.4999 105.533 59.2124L105.476 59.0439C105.645 57.7918 105.814 56.5509 105.99 55.3025C106.159 54.0503 106.327 52.8019 106.444 51.5557C106.613 50.3647 106.781 49.1157 106.899 47.8121C107.067 46.5631 107.176 45.26 107.35 43.8963L104.853 43.5577L104.911 43.0486C105.423 42.9343 105.876 42.819 106.327 42.7621C106.836 42.7047 107.29 42.6533 107.692 42.6533C107.918 42.6533 108.087 42.7053 108.201 42.8764C108.313 42.9917 108.372 43.1602 108.372 43.3276C108.372 43.385 108.372 43.6136 108.313 44.0149C108.313 44.4644 108.261 44.922 108.201 45.4843C108.146 46.0519 108.087 46.6763 107.97 47.3582C107.918 47.9816 107.858 48.6635 107.744 49.2885C107.692 49.9108 107.579 50.4747 107.518 51.0471C107.461 51.5568 107.405 51.9548 107.35 52.2413H107.404C107.744 51.3878 108.146 50.7059 108.486 50.1957C108.881 49.6281 109.28 49.2305 109.678 48.8872C110.074 48.6061 110.468 48.3802 110.811 48.2681C111.206 48.1538 111.608 48.0964 111.946 48.0964V48.0959ZM111.717 49.0036C111.38 49.0036 111.037 49.1157 110.642 49.2874C110.242 49.517 109.848 49.8577 109.452 50.3078C109.052 50.7627 108.601 51.4446 108.201 52.178C107.804 52.9709 107.404 53.942 107.01 55.1335L106.499 58.5337C107.068 58.7601 107.579 58.9318 108.031 58.9865C108.486 59.1008 108.881 59.1008 109.166 59.1008C110.075 59.1008 110.812 58.8744 111.38 58.4189C112.003 57.9634 112.454 57.3417 112.793 56.6625C113.133 55.9811 113.363 55.2419 113.535 54.4457C113.651 53.6517 113.702 52.9162 113.702 52.2397C113.702 51.1597 113.536 50.3067 113.196 49.7965C112.793 49.2863 112.343 49.0025 111.717 49.0025L111.717 49.0036ZM122.05 48.1533C122.498 48.1533 122.895 48.2053 123.409 48.3223C123.86 48.3802 124.315 48.5487 124.823 48.7204L125.451 48.0964L125.791 48.1538C125.679 49.0615 125.502 50.0246 125.391 51.0471C125.225 52.067 125.111 53.0342 124.936 53.9945C124.822 54.9629 124.713 55.8685 124.599 56.7161C124.485 57.5697 124.428 58.3063 124.368 58.9334C124.713 58.9334 125.11 58.8213 125.502 58.6475C125.905 58.4785 126.242 58.3068 126.584 58.0825C126.698 58.1373 126.753 58.1947 126.753 58.3068L126.924 58.4785C126.698 58.7075 126.47 58.9339 126.187 59.1029C125.959 59.3261 125.733 59.501 125.502 59.6705C125.224 59.8422 124.996 59.9506 124.768 60.0707C124.599 60.1201 124.368 60.1829 124.259 60.1829C123.976 60.1829 123.75 60.1201 123.634 60.0107C123.465 59.8937 123.408 59.7279 123.348 59.5589C123.295 59.3894 123.295 59.1609 123.295 58.9345C123.295 58.7081 123.348 58.479 123.348 58.3074C123.408 57.9667 123.465 57.5708 123.519 57.1206C123.571 56.7172 123.634 56.3213 123.75 56.0386H123.634C123.295 56.8315 122.951 57.5134 122.554 58.0257C122.158 58.5933 121.761 58.9886 121.364 59.3261C120.964 59.6174 120.624 59.8422 120.23 59.9506C119.829 60.0702 119.49 60.1196 119.15 60.1196C118.297 60.1196 117.619 59.7789 117.103 59.1598C116.598 58.4779 116.315 57.4554 116.315 56.1002C116.315 55.0203 116.429 53.9945 116.652 53.0342C116.881 52.067 117.278 51.2155 117.731 50.5401C118.239 49.7982 118.81 49.2306 119.55 48.7783C120.23 48.3802 121.078 48.1538 122.049 48.1538L122.05 48.1533ZM119.376 59.2129C119.719 59.2129 120.059 59.1019 120.459 58.8755C120.85 58.7065 121.253 58.3653 121.647 57.9152C122.05 57.3974 122.443 56.7778 122.895 55.9822C123.295 55.1882 123.692 54.2236 124.089 53.0857C124.146 52.5219 124.26 51.9543 124.315 51.3877C124.429 50.8175 124.54 50.2509 124.6 49.6839C124.029 49.4602 123.52 49.2879 123.063 49.2311C122.612 49.1168 122.215 49.0621 121.875 49.0621C121.021 49.0621 120.284 49.3459 119.662 49.7987C119.096 50.2515 118.643 50.818 118.297 51.5573C117.959 52.2418 117.671 52.9725 117.56 53.7687C117.445 54.5627 117.331 55.3046 117.331 55.9259C117.331 57.0595 117.56 57.8561 117.9 58.421C118.24 58.9334 118.753 59.214 119.376 59.214V59.2129ZM130.898 48.0363C131.181 48.0363 131.355 48.0964 131.463 48.1538C131.638 48.2058 131.695 48.3802 131.695 48.5492C131.695 48.8877 131.638 49.2885 131.52 49.8588C131.463 50.4253 131.355 51.0471 131.241 51.8406H131.295C131.638 50.9902 131.917 50.3657 132.261 49.8588C132.6 49.3459 132.94 48.9451 133.223 48.7209C133.563 48.4376 133.903 48.2686 134.186 48.1538C134.531 48.0964 134.814 48.0363 135.039 48.0363C135.494 48.0363 135.831 48.1538 136.062 48.3223C136.23 48.5487 136.347 48.8352 136.347 49.1163L136.004 49.4602C135.719 49.288 135.493 49.2305 135.325 49.2305C135.099 49.1764 134.928 49.1764 134.756 49.1764C134.017 49.1764 133.337 49.6281 132.654 50.5921C132.032 51.4993 131.412 52.9714 130.841 55.0203L130.159 59.95H129.25C129.428 58.1941 129.648 56.4355 129.879 54.6764C130.104 52.9178 130.33 51.1614 130.558 49.2885L128.405 48.9451L128.459 48.4381C128.913 48.3233 129.365 48.2064 129.705 48.1544C130.104 48.097 130.499 48.0369 130.898 48.0369L130.898 48.0363ZM96.1161 57.3417L95.8882 57.5106C95.6566 57.6823 95.2029 58.0804 94.5261 58.4216C93.9002 58.7623 93.0491 59.0434 92.0899 59.0434C91.1815 59.0434 90.4384 58.7628 89.9847 58.3074C89.4765 57.7918 89.1908 57.119 89.1908 56.2623C89.1908 55.4141 89.4765 54.6201 90.0447 53.8814C90.6107 53.2027 91.4581 52.5782 92.5404 52.0658L92.7661 51.9537L92.8832 52.1227L96.1712 56.9457L96.2846 57.1721L96.1161 57.3411V57.3417ZM93.2203 50.3636C93.0491 50.0798 92.9352 49.8566 92.7661 49.6281C92.3157 48.8341 92.0289 48.3217 92.0289 47.2992C92.0289 46.4537 92.3151 45.7123 92.8228 45.2053C93.3915 44.635 94.1287 44.2976 94.9226 44.2976C95.548 44.2976 96.0583 44.5207 96.4537 44.9215C96.8528 45.3169 97.0785 45.8271 97.0785 46.5063C97.0785 47.4135 96.6816 48.1527 96.0589 48.7772C95.4913 49.4017 94.6375 49.9087 93.6173 50.4731L93.392 50.6474L93.2203 50.3636ZM97.0192 58.3068L97.9843 59.7794V59.8384H98.0442H98.0982L99.0612 59.214V59.1566L97.8725 57.398L97.7585 57.1716L97.9297 57.0573C98.1554 56.7166 98.4984 56.3186 98.8381 55.7542C99.1778 55.1866 99.5721 54.4447 99.915 53.5375L99.9744 53.259C100.089 52.9146 100.141 52.8009 100.2 52.7467H99.0093C98.9521 52.7467 98.952 52.6919 98.952 52.6919V52.7467C98.952 52.8009 98.8948 52.9151 98.8948 53.0326C98.8375 53.2016 98.7808 53.3701 98.7236 53.5965V53.6512C98.6091 53.9919 98.4379 54.4446 98.2122 54.9001C97.9837 55.3009 97.7579 55.6936 97.4749 56.097L97.2519 56.3781L97.0181 56.0343L94.073 51.6061L93.8419 51.3851L94.1817 51.2134C95.655 50.4714 96.6233 49.7375 97.2513 48.9419C98.0971 47.9795 98.3256 47.017 98.3256 46.3378C98.3256 45.547 98.0426 44.7509 97.4172 44.2353C96.9063 43.7836 96.1696 43.4424 95.1473 43.4424C93.8414 43.4424 92.7078 43.8941 91.969 44.576C91.1804 45.2579 90.7236 46.2782 90.7236 47.4725C90.7236 48.6608 91.1205 49.3427 91.7454 50.3051C91.8631 50.4714 91.9112 50.6458 92.0888 50.8759L92.1996 51.1013L91.9695 51.2702C90.838 51.9521 89.8157 52.5192 89.0785 53.3121C88.3419 54.1061 87.9438 55.0739 87.9438 56.4886C87.9438 57.6233 88.2814 58.4742 88.9095 59.1013C89.5894 59.7226 90.6091 60.0096 91.802 60.0096C92.9908 60.0096 94.0158 59.7226 94.7498 59.3851C95.4897 59.0413 96.0573 58.6458 96.3975 58.3626L96.6233 58.1909L96.8517 58.0219L97.0181 58.3057L97.0192 58.3068ZM76.0261 54.1646C78.1222 54.0503 79.7694 53.7118 80.8495 53.2027C81.9836 52.6925 82.5491 51.8964 82.5491 50.877C82.5491 50.3062 82.3833 49.8566 82.0976 49.516C81.8146 49.1152 81.3037 48.943 80.6216 48.943C79.3189 48.943 78.2366 49.4012 77.5048 50.3636C76.7077 51.2719 76.254 52.5208 76.0261 54.1651V54.1646ZM78.639 60.1207C77.8991 60.1207 77.2774 60.0118 76.8222 59.7247C76.3113 59.4983 75.9122 59.1571 75.6864 58.7628C75.4034 58.3647 75.2322 57.9146 75.1172 57.3422C75.0091 56.7784 74.9492 56.2075 74.9492 55.6437C74.9492 55.1335 74.9492 54.6212 75.0086 54.0514C75.1167 53.4876 75.2322 52.9167 75.4034 52.3529C75.572 51.7831 75.7972 51.273 76.0834 50.7054C76.3664 50.1962 76.7082 49.7397 77.1624 49.3453C77.5594 48.944 78.0708 48.6087 78.6962 48.3797C79.2644 48.1533 79.9416 48.0363 80.7355 48.0363C81.2502 48.0363 81.7039 48.0959 82.0976 48.2708C82.4405 48.4371 82.7235 48.6087 82.9488 48.8872C83.1777 49.1168 83.3462 49.4602 83.4602 49.7402C83.5714 50.0809 83.5714 50.4253 83.5714 50.7627C83.5714 51.5567 83.4056 52.2408 82.9488 52.803C82.4978 53.3153 81.9318 53.7681 81.2502 54.0519C80.5098 54.3926 79.7164 54.6217 78.8054 54.7912C77.8996 54.9629 76.9378 55.0771 75.9694 55.1345C75.9122 55.2467 75.9122 55.3588 75.9122 55.4731V55.8137C75.9122 56.2086 75.9694 56.6099 76.0261 57.0048C76.1395 57.4007 76.254 57.744 76.4819 58.0847C76.6504 58.4232 76.9372 58.707 77.3304 58.9334C77.6701 59.1587 78.1815 59.2161 78.7524 59.2161C79.3719 59.2161 79.9411 59.1587 80.566 58.9908C81.1341 58.8787 81.7028 58.6501 82.3228 58.3663L82.608 59.045C82.211 59.2746 81.6429 59.5606 80.9094 59.7816C80.2295 60.0133 79.4323 60.1222 78.6384 60.1222L78.639 60.1207ZM74.8374 42.4204C75.1167 42.4204 75.4034 42.4805 75.7431 42.4805C76.0828 42.5347 76.4226 42.5947 76.7077 42.7063L76.5392 43.5572C76.254 43.4998 75.9689 43.4429 75.6292 43.3855H74.8893C74.4383 43.3855 74.0435 43.4429 73.7038 43.5572C73.3614 43.7262 73.0784 43.9553 72.85 44.2965C72.6215 44.6887 72.3958 45.142 72.2246 45.826C72.0534 46.4532 71.9416 47.2445 71.887 48.2692H75.1172L75.0092 49.0031H71.7142C71.542 50.3631 71.4312 51.6673 71.2622 53.0331C71.0937 54.3336 70.9225 55.6947 70.7534 57.0026C70.64 57.9656 70.5255 58.8765 70.4083 59.8384C70.2404 60.8041 70.0719 61.6523 69.7862 62.3905C69.5037 63.1845 69.1068 63.8063 68.598 64.3213C68.0304 64.7714 67.3472 65 66.4966 65C66.2104 65 65.8701 65 65.5882 64.9426C65.2453 64.8884 64.9055 64.8283 64.5653 64.7135C64.6225 64.5992 64.6793 64.4898 64.6793 64.3728C64.7365 64.2639 64.7932 64.1464 64.7932 63.9801C65.1907 64.0944 65.4705 64.1464 65.7016 64.1464H66.3837C67.2316 64.1464 67.9143 63.8058 68.369 63.0718C68.8772 62.39 69.217 61.2585 69.4433 59.7236C69.6171 58.3062 69.7856 56.9484 69.9573 55.6941C70.1253 54.3904 70.2404 53.259 70.3543 52.2392C70.4651 51.2713 70.58 50.472 70.6394 49.8561C70.694 49.2863 70.7528 49.0025 70.7528 49.0025H68.8232L68.8772 48.5471C69.2169 48.4923 69.5599 48.3781 69.8455 48.3207C70.1831 48.2686 70.5255 48.2032 70.8085 48.0943L70.8657 47.6426C70.9797 46.9033 71.0937 46.1645 71.2622 45.5476C71.4312 44.9204 71.657 44.348 71.9994 43.8947C72.2824 43.4429 72.6825 43.0497 73.1362 42.8206C73.5851 42.5347 74.1558 42.4199 74.8385 42.4199L74.8374 42.4204ZM60.0207 59.214C60.3636 59.214 60.7033 59.1029 61.1056 58.8765C61.4993 58.7049 61.8995 58.3642 62.3532 57.9141C62.7448 57.3985 63.1508 56.7773 63.5419 55.9811C63.9388 55.1871 64.3385 54.222 64.7355 53.0852C64.8499 52.5208 64.904 51.9532 65.0185 51.3861C65.0757 50.8164 65.1902 50.2488 65.3041 49.6817C64.7355 49.4586 64.2219 49.2869 63.7704 49.23C63.3162 49.1157 62.9192 49.0637 62.5795 49.0637C61.6716 49.0637 60.935 49.3443 60.3636 49.7976C59.795 50.2493 59.2867 50.8169 58.947 51.5562C58.6073 52.2402 58.3783 52.9736 58.267 53.7676C58.0964 54.5638 58.0381 55.303 58.0381 55.9275C58.0381 57.0622 58.2098 57.8577 58.6067 58.4227C58.9464 58.9329 59.4033 59.2156 60.0207 59.2156V59.214ZM62.7453 48.1517C63.1508 48.1517 63.5992 48.2037 64.0534 48.3207C64.5076 48.3781 65.0184 48.5471 65.5304 48.7187L66.1558 48.0943L66.4955 48.1517C66.327 49.0626 66.2093 50.0219 66.0413 51.045C65.8691 52.0653 65.7551 53.0331 65.6444 53.995C65.4705 54.9607 65.3614 55.8658 65.3046 56.7167C65.1907 57.5675 65.0757 58.3068 65.0757 58.9313C65.4186 58.9313 65.7551 58.8192 66.1553 58.6475C66.5522 58.4753 66.9486 58.3068 67.2889 58.0825C67.3461 58.1346 67.4007 58.1947 67.4574 58.3068C67.4574 58.3642 67.5168 58.4211 67.574 58.4758C67.3456 58.7054 67.1198 58.9318 66.8919 59.1035C66.664 59.3272 66.3837 59.4983 66.1553 59.6711C65.9242 59.8396 65.7011 59.9485 65.4699 60.0692C65.2442 60.1212 65.0751 60.1802 64.9039 60.1802C64.6209 60.1802 64.4498 60.1212 64.2839 60.0117C64.1667 59.8937 64.0528 59.7247 63.9956 59.5589C63.9956 59.3872 63.9383 59.1577 63.9956 58.9318C63.9956 58.7054 63.9956 58.4758 64.0528 58.3074C64.0528 57.9667 64.1101 57.5681 64.1668 57.119C64.2213 56.7177 64.3379 56.3197 64.3952 56.0391H64.2839C63.9956 56.832 63.5986 57.5139 63.2017 58.0241C62.862 58.5917 62.4671 58.9897 62.068 59.3277C61.6711 59.6169 61.2709 59.8401 60.8761 59.949C60.5396 60.0697 60.1394 60.1217 59.7944 60.1217C59.0058 60.1217 58.3205 59.781 57.7577 59.1582C57.249 58.4768 56.9606 57.4549 56.9606 56.0992C56.9606 55.0192 57.0724 53.9967 57.3554 53.0342C57.5839 52.0664 57.9268 51.215 58.435 50.539C58.8913 49.7976 59.5173 49.23 60.194 48.7772C60.9339 48.3791 61.7851 48.1528 62.7443 48.1528L62.7453 48.1517ZM51.4584 59.214C52.027 59.214 52.6487 59.1566 53.2752 59.0429C53.8428 58.8766 54.4088 58.7048 54.9769 58.421L55.3166 59.0429C54.8025 59.3267 54.2371 59.5584 53.5544 59.7794C52.8723 60.0112 52.1945 60.1201 51.4584 60.1201C50.7763 60.1201 50.2076 60.0112 49.6962 59.7794C49.242 59.6153 48.8482 59.2725 48.5085 58.9313C48.2223 58.5354 47.9939 58.0826 47.8821 57.5675C47.7114 57.0606 47.6542 56.4328 47.6542 55.8116C47.6542 55.4135 47.7114 54.9608 47.7676 54.391C47.828 53.8808 47.8815 53.3137 48.0527 52.6925C48.2213 52.1227 48.4475 51.5551 48.6733 50.9881C48.9616 50.4242 49.3013 49.9714 49.7529 49.516C50.2071 49.0637 50.7185 48.7198 51.2899 48.436C51.9099 48.1522 52.6487 48.0352 53.5026 48.0352C54.0135 48.0352 54.4655 48.0948 54.8625 48.2043C55.2594 48.2697 55.597 48.3786 55.8254 48.4934C56.0512 48.5481 56.1678 48.6624 56.2796 48.7772C56.3935 48.8861 56.4534 49.0637 56.3935 49.3448C56.3935 49.4022 56.3363 49.5165 56.3363 49.6823C56.2791 49.8572 56.2277 50.0803 56.1106 50.3067C56.0512 50.539 55.9993 50.8169 55.8848 51.046C55.8254 51.3298 55.7136 51.5562 55.6595 51.7252H55.0882L55.2594 49.2874C55.031 49.1753 54.6912 49.1157 54.351 49.0637C54.0134 49.0036 53.6111 48.9435 53.2746 48.9435C52.477 48.9435 51.7954 49.1753 51.2321 49.5165C50.6613 49.9087 50.2071 50.4248 49.8101 51.046C49.4132 51.7252 49.1302 52.4071 48.9018 53.2606C48.7332 54.1083 48.6188 55.0192 48.6188 55.9275C48.6188 56.3803 48.6733 56.8326 48.7327 57.2279C48.8477 57.6287 49.0157 57.9672 49.1842 58.3079C49.4126 58.5917 49.6951 58.8202 50.0974 58.9897C50.435 59.1582 50.886 59.2151 51.4573 59.2151L51.4584 59.214ZM170.401 18.8151V19.726C170.401 24.3012 170.419 29.0608 176.593 29.0464C177.372 29.0442 178.158 28.9933 178.891 28.7164C179.814 28.3672 179.79 27.842 178.956 27.4375C178.874 27.3956 178.791 27.3608 178.712 27.3168L178.707 27.3119C177.601 26.7004 176.906 25.5474 176.906 24.2754C176.906 22.365 178.452 20.9068 180.355 20.9068C182.259 20.9068 183.803 22.3645 183.803 24.2754C183.803 24.3752 183.8 24.4776 183.791 24.578L183.784 24.6499L183.776 24.7148C183.596 26.2009 182.469 27.8656 181.134 28.5394C180.13 29.0464 179.073 29.437 177.976 29.6816C176.889 29.9209 175.783 30.0373 174.673 30.0325C168.306 30.0046 164.011 26.1542 164.001 19.0238C163.998 17.5474 164.233 16.0876 164.773 14.7109C165.274 13.4443 166.004 12.3231 166.978 11.3751C167.966 10.4148 169.127 9.71039 170.416 9.23131C171.852 8.69375 173.378 8.47756 174.903 8.47756C176.593 8.47756 178.302 8.75436 179.818 9.53387C181.141 10.2141 182.199 11.1889 182.924 12.4937C183.697 13.8789 183.994 16.9014 184 18.476V18.5361C184 18.7132 183.9 18.8081 183.722 18.8156H170.4L170.401 18.8151ZM170.448 18.1381H177.095C177.349 18.1381 177.7 18.108 177.88 17.8987C178.079 17.6691 178.103 17.1868 178.101 16.8987C178.093 15.7807 177.985 13.1535 177.646 12.0859C177.396 11.2909 177.008 10.4985 176.392 9.91695C175.863 9.41695 175.249 9.15246 174.519 9.15246C173.946 9.15514 173.443 9.34558 172.988 9.69429C172.455 10.1058 172.044 10.6616 171.727 11.2522C171.322 12.0146 171.041 12.8515 170.844 13.6911C170.616 14.6702 170.498 17.1321 170.448 18.1386V18.1381ZM153.419 12.5414C153.713 11.9159 154.107 11.3505 154.584 10.8419C155.231 10.1493 155.999 9.6122 156.856 9.21413C157.754 8.80103 158.709 8.59128 159.697 8.5945C160.397 8.5945 161.081 8.71788 161.712 9.02421C162.285 9.29835 162.756 9.69644 163.098 10.2329C163.458 10.7935 163.609 11.4277 163.609 12.0902C163.609 12.7185 163.461 13.3156 163.138 13.8574C162.831 14.3805 162.408 14.7898 161.881 15.0876C161.325 15.3987 160.717 15.5479 160.082 15.5479C159.468 15.5479 158.87 15.4272 158.323 15.1386C157.824 14.8762 157.426 14.4996 157.138 14.0135C156.839 13.4974 156.709 12.9137 156.709 12.3209C156.709 11.7533 156.822 11.2029 157.078 10.6932C157.322 10.2142 157.669 9.82841 158.112 9.52905C158.142 9.50759 158.171 9.48934 158.202 9.4711C157.912 9.54782 157.627 9.6476 157.349 9.77099C156.607 10.094 155.939 10.5355 155.355 11.0988C154.784 11.6449 154.316 12.2721 153.975 12.9867C153.66 13.6562 153.477 14.3628 153.468 15.1026V15.7367V26.35C153.468 26.9455 153.562 27.6086 153.934 28.0936C154.239 28.4938 154.643 28.68 155.142 28.68C156.987 28.6827 157.386 26.6408 157.386 25.3484C157.386 25.1247 157.567 24.9433 157.789 24.9433C158.01 24.9433 158.191 25.1247 158.191 25.3484C158.112 26.3918 157.592 28.1633 156.493 29.0496C155.522 29.8334 154.172 30.033 152.962 30.033C151.606 30.033 149.44 29.747 148.438 28.7685C147.444 27.799 147.144 26.4342 147.144 25.0882V15.7367V15.6461V15.4583V15.2694V15.0806V14.895V14.7046V14.5184V14.3301V12.1583V12.1305C147.14 11.5425 147.041 10.8917 146.677 10.4148C146.37 10.0146 145.967 9.82893 145.466 9.82893C143.624 9.82625 143.225 11.8681 143.225 13.1627C143.225 13.3837 143.044 13.5645 142.824 13.5645C142.601 13.5645 142.42 13.3837 142.42 13.1627C142.496 12.1192 143.018 10.3467 144.115 9.46094C145.086 8.67767 146.436 8.47756 147.648 8.47756C149.004 8.47756 151.167 8.76191 152.174 9.74207C152.948 10.498 153.301 11.5001 153.419 12.5414H153.419ZM131.762 26.1097C131.442 26.7508 131.018 27.3258 130.505 27.8371C129.819 28.5254 129.01 29.0485 128.115 29.423C127.126 29.8393 126.077 30.0303 125.006 30.0319C123.759 30.0362 122.484 29.8366 121.366 29.2572C120.383 28.7502 119.62 28.004 119.101 27.0276C118.534 25.9535 118.329 24.7352 118.329 23.5318V12.1578C118.329 11.5629 118.232 10.8998 117.863 10.4142C117.557 10.014 117.151 9.82841 116.653 9.82841C114.809 9.82573 114.411 11.8676 114.411 13.1622C114.411 13.3832 114.23 13.5639 114.008 13.5639C113.785 13.5639 113.607 13.3832 113.607 13.1622C113.684 12.1155 114.203 10.3462 115.3 9.46042C116.271 8.67715 117.622 8.47704 118.833 8.47704C120.191 8.47704 122.355 8.76295 123.358 9.74149C124.351 10.7109 124.652 12.0758 124.652 13.4197V24.6467C124.652 25.5254 124.794 26.5297 125.378 27.2229C125.932 27.8833 126.746 28.0893 127.579 28.0845C128.123 28.0802 128.633 27.9568 129.125 27.7245C129.619 27.4922 130.064 27.1757 130.449 26.7846C130.831 26.3946 131.135 25.9503 131.359 25.453C131.573 24.9873 131.696 24.49 131.701 23.9771V23.9514V12.1568C131.701 11.5618 131.603 10.8987 131.232 10.4132C130.928 10.013 130.523 9.82736 130.022 9.82736C128.178 9.82468 127.778 11.8665 127.778 13.1611C127.778 13.3821 127.599 13.5629 127.377 13.5629C127.157 13.5629 126.978 13.3821 126.978 13.1611C127.052 12.1144 127.571 10.3451 128.67 9.45932C129.642 8.67605 130.993 8.47593 132.201 8.47593C133.557 8.47593 135.723 8.7619 136.729 9.74045C137.719 10.7099 138.02 12.0747 138.02 13.4186V26.3505C138.02 26.9433 138.118 27.608 138.486 28.0941C138.791 28.4911 139.198 28.6773 139.698 28.6773C141.541 28.6799 141.576 26.9101 141.576 25.6156C141.576 25.3919 141.757 25.2132 141.978 25.2132C142.2 25.2132 142.378 25.3924 142.378 25.6156C142.304 26.659 142.146 28.1612 141.05 29.0469C140.078 29.8307 138.727 30.0303 137.516 30.0303C136.158 30.0303 133.995 29.7443 132.99 28.7658C132.251 28.0426 131.896 27.0989 131.762 26.1086L131.762 26.1097ZM60.2524 18.8151V19.726C60.2524 24.3012 60.2705 29.0608 66.4426 29.0464C67.2215 29.0442 68.0052 28.9933 68.743 28.7164C69.6626 28.3672 69.6369 27.842 68.8071 27.4375C68.7263 27.3956 68.6429 27.3608 68.5594 27.3168L68.5568 27.3119C67.4531 26.7004 66.7555 25.5474 66.7555 24.2754C66.7555 22.365 68.3021 20.9068 70.2056 20.9068C72.1106 20.9068 73.6551 22.3645 73.6551 24.2754C73.6551 24.3752 73.6524 24.4776 73.6412 24.578L73.6337 24.6499L73.6273 24.7148C73.4454 26.2009 72.3193 27.8656 70.9835 28.5394C69.982 29.0464 68.9248 29.437 67.8255 29.6816C66.7384 29.9209 65.6342 30.0373 64.5236 30.0325C58.1574 30.0046 53.8615 26.1542 53.8551 19.0238C53.8524 17.5474 54.0819 16.0876 54.6265 14.7109C55.1273 13.4443 55.8538 12.3231 56.8295 11.3751C57.8171 10.4148 58.9807 9.71039 60.2673 9.23131C61.7026 8.69375 63.2257 8.47756 64.7536 8.47756C66.4388 8.47756 68.1524 8.75436 69.6663 9.53387C70.9899 10.2141 72.0454 11.1889 72.773 12.4937C73.5476 13.8789 73.8439 16.9014 73.8488 18.476V18.5361C73.8488 18.7132 73.7514 18.8081 73.5727 18.8156H60.2513L60.2524 18.8151ZM60.2983 18.1381H66.9439C67.2012 18.1381 67.5505 18.108 67.7297 17.8987C67.9287 17.6691 67.9544 17.1868 67.9528 16.8987C67.9426 15.7807 67.8346 13.1535 67.4975 12.0859C67.2429 11.2909 66.8561 10.4985 66.2414 9.91695C65.715 9.41695 65.1008 9.15246 64.3706 9.15246C63.7982 9.15514 63.2948 9.34558 62.8379 9.69429C62.3051 10.1058 61.8969 10.6616 61.5796 11.2522C61.1714 12.0146 60.8927 12.8515 60.6964 13.6911C60.469 14.6702 60.3481 17.1321 60.2994 18.1386L60.2983 18.1381ZM14.706 0.635242C16.5699 0.635242 18.4225 0.925468 20.166 1.58803C21.7698 2.19747 23.233 3.10949 24.4688 4.3198C25.7024 5.52904 26.6413 7.44697 27.2881 9.06769C27.9953 10.8537 28.2971 12.5854 28.2971 14.5103C28.2971 16.74 27.9932 18.814 27.2004 20.8967C26.5092 22.7009 25.5035 24.8049 24.1259 26.1461C22.7858 27.4487 21.214 28.4181 19.4684 29.0528C17.5788 29.7406 15.5914 30.034 13.5933 30.034C12.1542 30.034 10.7258 29.8452 9.34177 29.4552C8.01771 29.0834 6.76103 28.5142 5.61083 27.7534C4.47722 27.0018 3.47093 26.0491 2.65028 24.9471C1.77827 23.7824 1.13365 21.99 0.700851 20.5919C0.204928 19.0061 0 17.5098 0 15.8451C0 13.7893 0.317239 11.9368 1.04106 10.021C1.71299 8.24202 2.70113 6.18033 4.01342 4.82946C5.33214 3.46733 6.91086 2.44158 8.65435 1.742C10.5765 0.96732 12.6373 0.635242 14.706 0.635242ZM14.2812 1.32565C12.8229 1.32565 11.5898 1.90399 10.5631 2.94155C9.30647 4.20819 8.53881 6.49149 8.05198 8.20287C7.3426 10.6975 7.12914 13.2598 7.12914 15.8451C7.12914 17.682 7.2634 19.3698 7.62504 21.1665C7.91232 22.5941 8.35531 24.5147 9.03954 25.8022C9.57987 26.8232 10.2957 27.7668 11.2351 28.4294C12.0878 29.0335 13.0503 29.343 14.0908 29.343C15.1297 29.343 16.0761 29.0244 16.9197 28.4176C17.8886 27.7223 18.6167 26.6993 19.1613 25.6343C19.8915 24.2046 20.3462 22.1 20.641 20.5243C21.0326 18.4106 21.1669 16.3859 21.1669 14.233C21.1669 11.9433 20.9818 9.69697 20.334 7.4947C19.8776 5.93514 19.1517 3.88684 17.9667 2.77364C16.9305 1.79723 15.6973 1.32513 14.2807 1.32513L14.2812 1.32565ZM45.2152 21.5774L48.9247 13.3778C49.0638 13.0731 49.2077 12.7523 49.2933 12.4293C49.3677 12.1541 49.4115 11.8735 49.4115 11.5881C49.4115 11.0205 49.2516 10.4969 48.7899 10.1439C48.2683 9.74203 47.5033 9.65353 46.8656 9.65353H45.2633V8.97648H54.3467V9.65353H53.3575C52.8841 9.65353 52.4245 9.74634 52.0217 10.0022C51.5579 10.2973 51.1727 10.7759 50.8736 11.2319C50.3799 11.9867 49.9492 12.7963 49.571 13.6123L42.6971 29.5313H42.1284L34.1765 12.4218C33.9026 11.8665 33.6057 11.2528 33.2521 10.7415C33.0151 10.3917 32.7182 10.0811 32.3356 9.8971C31.935 9.70396 31.4406 9.65301 31.0046 9.65301H30.2818V8.97596H43.0539V9.65301H41.9502C41.5886 9.65301 41.1874 9.7222 40.9065 9.97112C40.654 10.1922 40.554 10.4846 40.5588 10.815C40.5615 11.0688 40.6471 11.3472 40.7348 11.5827C40.8739 11.9545 41.0317 12.322 41.1986 12.6847L45.2141 21.5774H45.2152ZM86.3421 12.5414C86.6347 11.9159 87.0285 11.3505 87.5062 10.8419C88.153 10.1493 88.9201 9.6122 89.7782 9.21413C90.6759 8.80103 91.6309 8.59128 92.619 8.5945C93.3209 8.5945 94.003 8.71788 94.6359 9.02421C95.2061 9.29835 95.6764 9.69644 96.0199 10.2329C96.3794 10.7935 96.5323 11.4277 96.5296 12.0902C96.5296 12.7185 96.382 13.3156 96.0589 13.8574C95.7534 14.3805 95.3287 14.7898 94.8028 15.0876C94.2464 15.3987 93.6413 15.5479 93.0036 15.5479C92.3889 15.5479 91.7914 15.4272 91.2441 15.1386C90.7455 14.8762 90.3491 14.4996 90.0618 14.0135C89.7601 13.4974 89.6322 12.9137 89.6322 12.3209C89.6322 11.7533 89.744 11.2029 89.9992 10.6932C90.2421 10.2142 90.5898 9.82841 91.0328 9.52905C91.0633 9.50759 91.0954 9.48934 91.1259 9.4711C90.8343 9.54782 90.5492 9.6476 90.2699 9.77099C89.5279 10.094 88.8603 10.5355 88.2761 11.0988C87.7063 11.6449 87.2403 12.2721 86.8969 12.9867C86.5823 13.6562 86.3983 14.3628 86.3892 15.1026V15.7367V26.35C86.3892 26.9455 86.4865 27.6086 86.8573 28.0936C87.1617 28.4938 87.5645 28.68 88.0653 28.68C89.9088 28.6827 90.3095 26.6408 90.3095 25.3484C90.3095 25.1247 90.4882 24.9433 90.7107 24.9433C90.9311 24.9433 91.1114 25.1247 91.1114 25.3484C91.0328 26.3918 90.5154 28.1633 89.4166 29.0496C88.4456 29.8334 87.0937 30.033 85.8836 30.033C84.5274 30.033 82.3645 29.747 81.3604 28.7685C80.3664 27.799 80.0668 26.4342 80.0668 25.0882V15.7367V15.6461V15.4583V15.2694V15.0806V14.895V14.7046V14.5184V14.3301V12.1583V12.1305C80.0625 11.5425 79.9625 10.8917 79.5982 10.4148C79.2948 10.0146 78.8888 9.82893 78.3881 9.82893C76.5451 9.82625 76.146 11.8681 76.146 13.1627C76.146 13.3837 75.9657 13.5645 75.7453 13.5645C75.5227 13.5645 75.344 13.3837 75.344 13.1627C75.4211 12.1192 75.9406 10.3467 77.0373 9.46094C78.0088 8.67767 79.3601 8.47756 80.5703 8.47756C81.9264 8.47756 84.0899 8.76191 85.0956 9.74207C85.8729 10.498 86.2249 11.5001 86.3431 12.5414H86.3421Z" fill="white"/>
</svg>
