<svg width="41" height="40" viewBox="0 0 41 40" fill="none" xmlns="http://www.w3.org/2000/svg">
<g clip-path="url(#clip0_1293_3169)">
<path fill-rule="evenodd" clip-rule="evenodd" d="M20.1064 40C9.06078 40 0.106445 31.0457 0.106445 20C0.106445 8.95433 9.06078 0 20.1064 0C31.1521 0 40.1064 8.95433 40.1064 20C40.1064 31.0457 31.1521 40 20.1064 40ZM20.7657 31.1271C27.3227 31.1244 32.6556 25.7902 32.6582 19.2346C32.6595 16.0569 31.4236 13.069 29.1783 10.8212C26.9329 8.57325 23.9469 7.33471 20.7655 7.33333C14.2104 7.33333 8.87545 12.6681 8.87278 19.2252C8.87195 21.3212 9.41953 23.3671 10.4603 25.1707L8.77311 31.3333L15.0775 29.6796C16.8146 30.627 18.7704 31.1264 20.7608 31.1271H20.7657Z" fill="white"/>
<path fill-rule="evenodd" clip-rule="evenodd" d="M15.3698 27.5266L11.6286 28.508L12.6272 24.8604L12.3922 24.4864C11.4027 22.9126 10.8801 21.0937 10.8809 19.226C10.883 13.776 15.3173 9.34204 20.7697 9.34204C23.4099 9.34296 25.8917 10.3725 27.7579 12.2409C29.6242 14.1093 30.6514 16.5927 30.6504 19.234C30.6481 24.6844 26.2139 29.1187 20.7658 29.1187H20.7618C18.988 29.118 17.2484 28.6415 15.7307 27.7409L15.3698 27.5266ZM26.7572 22.0626C26.6829 21.9387 26.4849 21.8644 26.1877 21.7155C25.8905 21.5668 24.4296 20.848 24.1572 20.7488C23.8849 20.6496 23.6866 20.6001 23.4886 20.8975C23.2905 21.195 22.721 21.8644 22.5477 22.0626C22.3744 22.261 22.2009 22.2858 21.9039 22.137C21.6068 21.9883 20.6493 21.6745 19.5143 20.6621C18.6309 19.8741 18.0344 18.9011 17.8611 18.6036C17.6878 18.3061 17.8427 18.1453 17.9914 17.9971C18.1251 17.864 18.2886 17.65 18.4372 17.4765C18.5858 17.303 18.6353 17.179 18.7343 16.9809C18.8334 16.7825 18.7839 16.609 18.7095 16.4602C18.6353 16.3115 18.0409 14.8488 17.7934 14.2538C17.5521 13.6744 17.3072 13.7529 17.1248 13.7437C16.9516 13.735 16.7534 13.7332 16.5553 13.7332C16.3572 13.7332 16.0352 13.8075 15.7629 14.105C15.4904 14.4025 14.7228 15.1215 14.7228 16.584C14.7228 18.0467 15.7876 19.4597 15.9362 19.658C16.0848 19.8564 18.0315 22.8578 21.0124 24.145C21.7214 24.4511 22.2749 24.634 22.7065 24.7709C23.4184 24.9971 24.0662 24.9652 24.5781 24.8886C25.1491 24.8034 26.3362 24.1699 26.5839 23.4758C26.8314 22.7815 26.8314 22.1865 26.7572 22.0626Z" fill="white"/>
</g>
<defs>
<clipPath id="clip0_1293_3169">
<rect width="40" height="40" fill="white" transform="translate(0.106445)"/>
</clipPath>
</defs>
</svg>
