<svg width="16" height="20" viewBox="0 0 16 20" fill="none" xmlns="http://www.w3.org/2000/svg">
<g clip-path="url(#clip0_1231_5081)">
<path d="M8 0C3.5816 0 0 3.5816 0 8C0 10.2084 0.8948 12.208 2.342 13.6556C3.7896 15.104 7.2 17.2 7.4 19.4C7.42999 19.7299 7.6688 20 8 20C8.3312 20 8.57001 19.7299 8.6 19.4C8.8 17.2 12.2104 15.104 13.658 13.6556C15.1052 12.208 16 10.2084 16 8C16 3.5816 12.4184 0 8 0Z" fill="#DD2F08"/>
<path d="M7.95801 10.5833C9.40776 10.5833 10.583 9.40799 10.583 7.95825C10.583 6.5085 9.40776 5.33325 7.95801 5.33325C6.50827 5.33325 5.33301 6.5085 5.33301 7.95825C5.33301 9.40799 6.50827 10.5833 7.95801 10.5833Z" fill="white"/>
</g>
<defs>
<clipPath id="clip0_1231_5081">
<rect width="16" height="20" fill="white"/>
</clipPath>
</defs>
</svg>
